<svg width="20" height="20" viewBox="0 0 20 20" fill="none" xmlns="http://www.w3.org/2000/svg">
<g clip-path="url(#clip0_1878_136648)">
<path d="M3.33333 9.16699H16.6667C16.8877 9.16699 17.0996 9.25479 17.2559 9.41107C17.4122 9.56735 17.5 9.77931 17.5 10.0003V10.417C17.5 11.667 15.4025 15.0612 14.1667 15.8337V16.667C14.1667 16.888 14.0789 17.1 13.9226 17.2562C13.7663 17.4125 13.5543 17.5003 13.3333 17.5003H6.66667C6.44565 17.5003 6.23369 17.4125 6.07741 17.2562C5.92113 17.1 5.83333 16.888 5.83333 16.667V15.8337C4.4275 14.9553 2.5 11.667 2.5 10.417V10.0003C2.5 9.77931 2.5878 9.56735 2.74408 9.41107C2.90036 9.25479 3.11232 9.16699 3.33333 9.16699Z" stroke="#181818" stroke-width="1.25" stroke-linecap="round" stroke-linejoin="round"/>
<path d="M15.4163 9.16667C15.7088 8.31917 15.7713 7.30333 15.8329 6.07167V5H13.9529C11.5946 5 10.1063 5.67 9.25293 6.73" stroke="#181818" stroke-width="1.25" stroke-linecap="round" stroke-linejoin="round"/>
<path d="M4.37852 9.17366C4.26147 8.62273 4.19039 8.06303 4.16602 7.50033V6.66699H5.62852C6.44518 6.66699 7.12935 6.77033 7.69435 6.95866" stroke="#181818" stroke-width="1.25" stroke-linecap="round" stroke-linejoin="round"/>
<path d="M6.66602 6.66634L7.49935 3.33301L10.8327 5.41634" stroke="#181818" stroke-width="1.25" stroke-linecap="round" stroke-linejoin="round"/>
<path d="M10.8327 9.16699V8.75033C10.8327 8.19779 10.6132 7.66789 10.2225 7.27719C9.83179 6.88649 9.30188 6.66699 8.74935 6.66699C8.19681 6.66699 7.66691 6.88649 7.27621 7.27719C6.88551 7.66789 6.66602 8.19779 6.66602 8.75033V9.16699" stroke="#181818" stroke-width="1.25" stroke-linecap="round" stroke-linejoin="round"/>
</g>
<defs>
<clipPath id="clip0_1878_136648">
<rect width="20" height="20" fill="white"/>
</clipPath>
</defs>
</svg>
