<svg width="25" height="24" viewBox="0 0 25 24" fill="none" xmlns="http://www.w3.org/2000/svg">
<g clip-path="url(#clip0_4143_279029)">
<path d="M4.05556 9.16699H20.9444C21.2244 9.16699 21.4929 9.29342 21.6908 9.51846C21.8888 9.74351 22 10.0487 22 10.367V10.967C22 12.767 19.3432 17.6546 17.7778 18.767V19.967C17.7778 20.2853 17.6666 20.5905 17.4686 20.8155C17.2707 21.0406 17.0022 21.167 16.7222 21.167H8.27778C7.99783 21.167 7.72934 21.0406 7.53139 20.8155C7.33343 20.5905 7.22222 20.2853 7.22222 19.967V18.767C5.4415 17.5022 3 12.767 3 10.967V10.367C3 10.0487 3.11121 9.74351 3.30917 9.51846C3.50712 9.29342 3.7756 9.16699 4.05556 9.16699Z" stroke="#616161" stroke-width="1.25" stroke-linecap="round" stroke-linejoin="round"/>
<path d="M19.0005 9.16667C19.3515 8.31917 19.4265 7.30333 19.5005 6.07167V5H17.2445C14.4145 5 12.6285 5.67 11.6045 6.73" stroke="#616161" stroke-width="1.25" stroke-linecap="round" stroke-linejoin="round"/>
<path d="M5.75402 9.17366C5.61357 8.62273 5.52827 8.06303 5.49902 7.50033V6.66699H7.25402C8.23402 6.66699 9.05502 6.77033 9.73302 6.95866" stroke="#616161" stroke-width="1.25" stroke-linecap="round" stroke-linejoin="round"/>
<path d="M8.49902 6.66634L9.49902 3.33301L13.499 5.41634" stroke="#616161" stroke-width="1.25" stroke-linecap="round" stroke-linejoin="round"/>
<path d="M13.499 9.16699V8.75033C13.499 8.19779 13.2356 7.66789 12.7668 7.27719C12.2979 6.88649 11.6621 6.66699 10.999 6.66699C10.336 6.66699 9.7001 6.88649 9.23126 7.27719C8.76242 7.66789 8.49902 8.19779 8.49902 8.75033V9.16699" stroke="#616161" stroke-width="1.25" stroke-linecap="round" stroke-linejoin="round"/>
</g>
<defs>
<clipPath id="clip0_4143_279029">
<rect width="24" height="24" fill="white" transform="translate(0.5)"/>
</clipPath>
</defs>
</svg>
