<svg width="25" height="24" viewBox="0 0 25 24" fill="none" xmlns="http://www.w3.org/2000/svg">
<path d="M4.598 19.902C4.94623 20.2503 5.35967 20.5266 5.81471 20.7152C6.26974 20.9037 6.75746 21.0007 7.25 21.0007M4.598 19.902C5.30126 20.6053 6.25544 21.0007 7.25 21.0007M4.598 19.902C3.89474 19.1987 3.5 18.2446 3.5 17.25V4.125C3.5 3.504 4.004 3 4.625 3H9.875C10.496 3 11 3.504 11 4.125V8.197M7.25 21.0007C7.74254 21.0007 8.23026 20.9037 8.68529 20.7152C9.14033 20.5266 9.55377 20.2503 9.902 19.902M7.25 21.0007C8.24456 21.0007 9.19874 20.6053 9.902 19.902M7.25 21.0007L20.375 21C20.996 21 21.5 20.496 21.5 19.875V14.625C21.5 14.004 20.996 13.5 20.375 13.5H16.303M9.902 19.902L16.303 13.5M9.902 19.902C10.6053 19.1987 11 18.2446 11 17.25V8.197M16.303 13.5L19.182 10.62C19.622 10.182 19.622 9.47 19.182 9.03L15.47 5.317C15.03 4.878 14.318 4.878 13.88 5.317L11 8.197M7.25 17.25H7.258V17.258H7.25V17.25Z" stroke="#616161" stroke-width="1.25" stroke-linecap="round" stroke-linejoin="round"/>
</svg>
