<svg width="24" height="24" viewBox="0 0 24 24" fill="none" xmlns="http://www.w3.org/2000/svg">
<path d="M21 7.5L17 9.5M17 9.5L16.5 9.75L12 12M17 9.5V13M17 9.5L7.5 4.5M12 12L3 7.5M12 12V21.5M15.578 3.382L17.578 4.432C19.729 5.561 20.805 6.125 21.403 7.14C22 8.154 22 9.417 22 11.94V12.057C22 14.582 22 15.845 21.403 16.859C20.805 17.874 19.729 18.439 17.578 19.568L15.578 20.617C13.822 21.539 12.944 22 12 22C11.056 22 10.178 21.54 8.422 20.618L6.422 19.568C4.271 18.439 3.195 17.875 2.597 16.86C2 15.846 2 14.583 2 12.06V11.943C2 9.418 2 8.155 2.597 7.141C3.195 6.126 4.271 5.561 6.422 4.433L8.422 3.383C10.178 2.461 11.056 2 12 2C12.944 2 13.822 2.46 15.578 3.382Z" stroke="#6318AF" stroke-width="1.5" stroke-linecap="round"/>
</svg>
