<svg width="21" height="18" viewBox="0 0 21 18" fill="none" xmlns="http://www.w3.org/2000/svg">
<path d="M0.75 5.25H20.25M0.75 6H20.25M3.75 11.25H9.75M3.75 13.5H6.75M3 16.5H18C18.5967 16.5 19.169 16.2629 19.591 15.841C20.0129 15.419 20.25 14.8467 20.25 14.25V3.75C20.25 3.15326 20.0129 2.58097 19.591 2.15901C19.169 1.73705 18.5967 1.5 18 1.5H3C2.40326 1.5 1.83097 1.73705 1.40901 2.15901C0.987053 2.58097 0.75 3.15326 0.75 3.75V14.25C0.75 14.8467 0.987053 15.419 1.40901 15.841C1.83097 16.2629 2.40326 16.5 3 16.5Z" stroke="#616161" stroke-width="1.25" stroke-linecap="round" stroke-linejoin="round"/>
</svg>
