<svg width="182" height="146" viewBox="0 0 182 146" fill="none" xmlns="http://www.w3.org/2000/svg">
<path d="M97.8143 122.612C97.6258 122.738 97.5002 122.801 97.3117 122.926C97.3117 122.926 97.3117 122.926 97.3117 122.864V122.801C97.4374 122.738 97.6258 122.675 97.8143 122.612Z" fill="url(#paint0_linear_2932_261883)"/>
<path d="M99.1976 123.741C99.0091 123.867 98.8206 123.993 98.6321 124.118C98.4437 124.055 98.1295 123.93 97.8154 123.616C97.8154 123.616 97.8783 123.616 97.9411 123.616C98.1295 123.616 98.3808 123.679 98.5693 123.679C98.695 123.679 98.7578 123.679 98.8834 123.679C99.0091 123.679 99.0719 123.741 99.1976 123.741Z" fill="url(#paint1_linear_2932_261883)"/>
<path d="M101.271 122.861C101.145 122.861 101.082 122.924 100.957 122.987C100.957 122.924 100.894 122.924 100.894 122.924C100.768 122.736 100.705 122.547 100.58 122.421C100.517 122.359 100.454 122.233 100.391 122.17C100.328 122.045 100.203 121.919 100.077 121.793L100.014 121.73C99.8885 121.542 99.7 121.354 99.5744 121.228C99.5744 121.228 99.5744 121.165 99.6372 121.165C99.7001 121.228 99.7629 121.291 99.8885 121.353C100.391 121.73 100.894 122.233 101.271 122.861Z" fill="url(#paint2_linear_2932_261883)"/>
<path d="M99.8881 121.229C99.3227 120.475 98.6316 119.784 97.8149 119.281C97.5636 119.218 97.3751 119.218 97.1238 119.218C97.3123 119.344 97.5008 119.47 97.7521 119.595C97.8777 119.658 98.0034 119.721 98.0662 119.846C98.129 119.909 98.2547 119.972 98.3803 120.035C98.506 120.161 98.6316 120.223 98.7573 120.349C98.8829 120.475 99.0714 120.6 99.197 120.726C99.3855 120.852 99.5112 121.04 99.6996 121.229C99.8253 121.354 100.014 121.543 100.139 121.731H100.202C100.014 121.48 99.9509 121.354 99.8881 121.229ZM97.3123 122.799C97.1238 122.988 96.9354 123.113 96.6841 123.302C96.6841 123.302 96.7469 123.302 96.8097 123.302C96.9982 123.176 97.1867 123.05 97.3751 122.925C97.5008 122.799 97.6893 122.736 97.8777 122.611C97.6264 122.674 97.438 122.736 97.3123 122.799ZM98.8829 123.679C98.7573 123.679 98.6944 123.679 98.5688 123.679C98.3803 123.679 98.129 123.616 97.9406 123.616C97.9406 123.616 97.8777 123.616 97.8149 123.616C98.129 123.867 98.4431 124.056 98.6316 124.118C98.8201 123.993 99.0086 123.867 99.197 123.742C99.0714 123.742 99.0086 123.679 98.8829 123.679Z" fill="url(#paint3_linear_2932_261883)"/>
<path d="M171.319 83.6612C175.905 92.582 167.989 94.4667 163.654 100.435C161.204 103.827 160.89 108.225 159.696 112.246C157.12 121.104 149.644 128.328 140.786 130.653C136.703 131.721 132.305 131.783 128.159 130.841C125.834 129.522 123.761 127.763 122.002 125.501C114.4 115.826 116.536 99.9951 126.462 92.7077C122.316 90.5089 122.002 85.0433 123.007 81.0226C124.326 75.8712 127.907 74.1121 132.745 72.4159C143.236 68.7722 155.487 70.1543 164.659 76.4994C167.298 78.4469 169.811 80.7713 171.319 83.6612Z" fill="url(#paint4_linear_2932_261883)" stroke="#4B2A7A" stroke-width="0.306937" stroke-miterlimit="10"/>
<path d="M20.9815 52.9428C26.1958 50.4927 32.4154 50.4299 37.6926 52.6287C26.3843 62.429 19.4737 75.4334 19.4737 89.7569C19.4737 99.7458 22.8662 109.169 28.7716 117.21C26.8241 117.085 24.8137 116.771 22.8033 116.143C18.28 114.76 14.1336 112.373 10.6783 109.106C10.1757 108.667 9.73596 108.164 9.2962 107.724C7.7256 103.327 6.78324 98.6778 6.53194 94.0289C6.02935 84.6055 9.23337 75.8103 15.9555 69.0883C17.212 67.8318 17.1492 65.8215 16.7094 64.1252C16.2697 62.429 15.5786 60.7328 15.7042 59.0366C15.9555 56.2096 18.4057 54.1364 20.9815 52.9428Z" fill="url(#paint5_linear_2932_261883)"/>
<path d="M45.6085 46.7841C42.7814 48.5431 40.1428 50.4906 37.6926 52.6266C32.4154 50.4278 26.133 50.4278 20.9815 52.9407C18.4685 54.1343 15.9556 56.2075 15.7043 59.0345C15.5158 60.7936 16.2697 62.4269 16.7094 64.1232C17.1492 65.8194 17.1492 67.8297 15.9556 69.0862C9.23339 75.8082 6.02937 84.6662 6.53196 94.0268C6.78326 98.6757 7.72562 103.325 9.29622 107.722C3.57924 101.566 0.500864 93.0216 1.06628 84.6662C1.3804 79.8289 2.82535 75.18 4.71007 70.7195C6.28067 67.013 7.47432 63.3065 7.22303 59.1602C7.09738 57.2755 6.0922 54.8882 6.40632 53.0664C6.72044 51.1189 8.66798 49.1085 9.98728 47.7892C13.1913 44.6481 17.4005 42.7006 21.7354 41.8211C29.9025 40.1249 38.7606 42.0724 45.6085 46.7841Z" fill="#DAD0E7" stroke="#4B2A7A" stroke-width="0.306937" stroke-miterlimit="10"/>
<path d="M101.273 122.863C100.833 122.298 100.394 121.732 99.8281 121.293C99.2627 120.539 98.5716 119.848 97.7549 119.345C97.5036 119.282 97.3151 119.282 97.0638 119.282C97.2523 119.408 97.4408 119.534 97.6921 119.659C97.8177 119.722 97.9434 119.785 98.0062 119.91C98.069 119.973 98.1947 120.036 98.3203 120.099C98.446 120.225 98.5716 120.287 98.6973 120.413C98.8229 120.539 99.0114 120.664 99.137 120.79C99.3255 120.916 99.4512 121.104 99.6396 121.293C99.7653 121.418 99.9537 121.607 100.079 121.795C100.079 121.858 100.142 121.858 100.142 121.858C100.268 121.984 100.331 122.109 100.456 122.235C100.519 122.298 100.582 122.423 100.645 122.486C100.77 122.675 100.896 122.863 100.959 122.989C100.959 123.052 101.022 123.052 101.022 123.052C101.085 123.114 101.147 123.24 101.147 123.303C101.085 123.24 101.085 123.114 101.022 123.052C101.085 122.926 101.21 122.863 101.273 122.863Z" fill="#DAD0E7"/>
<path d="M180.05 85.0445C174.647 70.9094 161.329 60.9834 146.816 59.2872C134.377 44.5238 113.08 34.8491 88.9554 34.8491C72.5583 34.8491 57.4806 39.3723 45.544 46.8483C42.7169 48.6073 40.0783 50.6176 37.6282 52.6908C26.3199 62.4911 19.4092 75.4954 19.4092 89.819C19.4092 95.159 20.3516 100.248 22.1735 105.148C23.7441 109.42 25.9429 113.503 28.7072 117.273C30.4663 119.66 32.4138 121.921 34.5498 124.057C36.3717 125.816 38.2564 127.513 40.3296 129.146C40.4553 129.46 40.6437 129.774 40.8322 130.088C39.2616 130.34 37.6282 132.036 36.9371 133.481C36.2461 134.863 36.2461 136.622 36.9999 138.004C39.0103 137.941 40.7694 138.632 42.5285 139.449C43.5965 139.952 44.6016 140.454 45.6697 140.894C49.816 142.527 54.8419 141.899 58.4857 139.261C60.6846 140.077 62.8834 140.831 65.1451 141.522C69.2286 142.716 73.5007 143.595 77.9612 144.098H78.024C78.024 144.098 78.0868 144.098 78.1496 144.098C78.2125 144.098 78.3381 144.098 78.4009 144.098C79.1548 144.224 79.9087 144.224 80.7254 144.349C82.1075 144.349 83.5525 144.349 84.9346 144.349C85.6257 144.475 86.2539 144.6 86.945 144.663V144.726C87.636 144.726 88.2643 144.726 88.9554 144.726C90.5888 144.726 92.2222 144.663 93.8556 144.6C93.8556 143.281 95.1749 141.648 94.6723 138.695C93.9813 134.989 91.3427 134.737 91.0914 131.659C90.8401 128.392 93.73 127.701 93.4159 124.309C93.1646 121.545 91.217 120.979 91.0914 117.775C91.0914 117.273 91.0285 115.137 92.0965 113.692C95.3006 109.545 107.111 113.315 107.74 117.524C107.928 118.906 106.735 119.346 106.735 121.607C106.672 124.623 108.808 125.251 109.059 128.141C109.373 131.533 106.483 132.287 106.735 135.491C106.986 138.821 110.378 140.454 110.378 142.15C111.007 141.962 111.698 141.836 112.326 141.648C115.341 140.831 118.231 139.763 120.996 138.632C125.016 136.999 128.786 135.051 132.241 132.853C144.555 136.81 160.135 130.34 164.407 117.524C166.229 112.121 167.36 106.09 171.443 102.069C174.145 99.4309 177.914 97.7975 179.736 94.4679C181.432 91.6409 181.244 88.06 180.05 85.0445ZM163.59 100.436C161.14 103.828 160.826 108.226 159.632 112.247C157.057 121.105 149.58 128.329 140.722 130.654C136.639 131.722 132.241 131.785 128.095 130.842C125.77 129.523 123.697 127.764 121.938 125.502C114.336 115.828 116.472 99.9963 126.398 92.7089C122.252 90.5101 121.938 85.0445 122.943 81.0238C124.262 75.8724 127.843 74.1133 132.681 72.4171C143.172 68.7734 155.423 70.1555 164.595 76.5006C167.297 78.3853 169.747 80.7097 171.255 83.5996C175.904 92.5832 167.988 94.4679 163.59 100.436Z" fill="#DAD0E7"/>
<path d="M20.2881 81.3401L20.665 99.9356C21.1676 101.946 21.733 103.956 22.4869 105.841C23.0523 106.344 23.6806 106.783 24.246 107.16C26.1307 108.354 28.2667 108.982 30.5284 108.982C38.507 108.982 44.9151 100.752 44.9151 90.575C44.9151 80.3977 38.4442 72.168 30.5284 72.168C28.0783 72.168 25.6909 72.9847 23.6806 74.3668C22.9267 74.8693 22.2356 75.4347 21.6074 76.1258L20.2881 81.3401Z" fill="white"/>
<path d="M39.1357 91.8284C39.1357 95.158 38.1305 97.9851 36.5599 100.058C34.9893 102.069 33.0418 103.199 30.9058 103.199C28.8326 103.199 26.8222 102.069 25.2516 100.058C23.681 98.0479 22.6758 95.0952 22.6758 91.8284C22.6758 88.5617 23.681 85.6718 25.2516 83.5987C26.8222 81.5883 28.7698 80.4575 30.9058 80.4575C32.979 80.4575 34.9893 81.5883 36.5599 83.5987C38.1305 85.5462 39.1357 88.4988 39.1357 91.8284Z" fill="#010101"/>
<path d="M38.0667 82.4057C36.1191 79.8928 33.6062 78.5107 30.9676 78.5107C28.329 78.5107 25.816 79.8928 23.8056 82.4057C21.9209 84.9815 20.8529 88.1854 20.8529 91.7663C20.8529 95.41 21.9209 98.7396 23.8056 101.19C25.7532 103.703 28.2661 105.085 30.9047 105.085C33.5433 105.085 36.0563 103.703 38.0667 101.19C39.9514 98.614 41.0194 95.41 41.0194 91.8292C41.0194 88.3739 39.9514 84.9187 38.0667 82.4057ZM30.9676 101.315C29.0828 101.315 27.7007 99.9961 26.8212 98.8653C25.4391 97.1063 24.6852 94.5305 24.6852 91.7663C24.6852 89.0649 25.4391 86.4892 26.8212 84.6674C27.7007 83.5366 29.0828 82.2173 30.9676 82.2173C31.4702 82.2173 31.9727 82.3429 32.4753 82.5314C33.6062 82.9712 34.5485 83.8507 35.1139 84.6674C35.805 85.5469 36.3076 86.6777 36.6845 87.8085C37.0615 89.065 37.3128 90.3842 37.3128 91.7663C37.3128 94.4677 36.5589 97.0434 35.1768 98.8653C34.2344 99.9961 32.8523 101.315 30.9676 101.315Z" fill="url(#paint6_linear_2932_261883)"/>
<path d="M34.6736 88.5026C36.5472 88.5026 38.0661 86.9838 38.0661 85.1102C38.0661 83.2366 36.5472 81.7178 34.6736 81.7178C32.8 81.7178 31.2811 83.2366 31.2811 85.1102C31.2811 86.9838 32.8 88.5026 34.6736 88.5026Z" fill="white"/>
<path d="M52.6458 99.5554C53.0856 95.4719 55.8498 91.7654 59.6193 90.0692C63.5772 88.3101 68.4146 89.0012 71.7443 91.7025" stroke="#4B2A7A" stroke-width="0.613874" stroke-miterlimit="10" stroke-linecap="round" stroke-linejoin="round"/>
<path d="M78.2149 115.137C80.2881 115.2 82.11 116.519 83.1152 118.341C83.6178 119.346 83.8691 120.477 83.7434 121.607" stroke="#4B2A7A" stroke-width="0.613874" stroke-miterlimit="10" stroke-linecap="round" stroke-linejoin="round"/>
<path d="M79.5325 123.68C74.6951 121.607 68.2871 124.057 66.2139 128.957" stroke="#4B2A7A" stroke-width="0.613874" stroke-miterlimit="10" stroke-linecap="round" stroke-linejoin="round"/>
<path d="M46.6773 128.707C47.3055 128.267 47.8081 127.576 48.0594 126.822C48.562 125.566 48.4992 124.183 48.4364 122.864C48.1851 118.467 47.6825 114.006 48.2479 109.609C48.7505 105.902 50.1326 102.196 52.6456 99.557C53.1482 99.0544 53.6508 98.5518 54.2162 98.1749C57.7343 95.5363 63.2 95.1594 66.404 98.1749" stroke="#4B2A7A" stroke-width="0.613874" stroke-miterlimit="10" stroke-linecap="round" stroke-linejoin="round"/>
<path d="M132.366 132.79C144.68 136.748 160.26 130.277 164.532 117.461C166.354 112.059 167.485 106.028 171.568 102.007C174.27 99.3683 178.039 97.7349 179.861 94.4053C181.432 91.5783 181.243 87.9974 180.112 84.9819C174.71 70.8468 161.391 60.9208 146.879 59.2246C141.036 58.5335 135.005 59.1618 129.225 61.4234" stroke="#4B2A7A" stroke-width="0.613874" stroke-miterlimit="10" stroke-linecap="round" stroke-linejoin="round"/>
<path d="M128.098 130.903C129.417 131.657 130.862 132.285 132.307 132.788" stroke="#4B2A7A" stroke-width="0.613874" stroke-miterlimit="10" stroke-linecap="round" stroke-linejoin="round"/>
<path d="M128.095 130.905C125.77 129.586 123.697 127.827 121.938 125.565C114.336 115.89 116.472 100.059 126.398 92.7716C122.252 90.5728 121.938 85.1072 122.943 81.0866C124.262 75.9351 127.843 74.1761 132.681 72.4799C143.172 68.8362 155.423 70.2183 164.595 76.5634C167.297 78.448 169.747 80.7725 171.255 83.6623C175.841 92.5832 167.925 94.4678 163.59 100.436C161.14 103.828 160.826 108.226 159.632 112.247C157.056 121.105 149.58 128.329 140.722 130.654C136.639 131.785 132.241 131.847 128.095 130.905Z" stroke="#4B2A7A" stroke-width="0.613874" stroke-miterlimit="10" stroke-linecap="round" stroke-linejoin="round"/>
<path d="M40.3925 129.082C40.1412 128.579 39.9527 128.077 39.8271 127.511C39.6386 126.632 39.7642 125.626 40.3296 124.935C40.8951 124.244 41.9631 123.867 42.7798 124.37C43.4708 124.81 43.7221 125.689 44.0991 126.443C44.6645 127.448 45.6069 128.265 46.6749 128.705C47.2403 128.893 47.8057 129.019 48.4339 129.019" stroke="#4B2A7A" stroke-width="0.613874" stroke-miterlimit="10" stroke-linecap="round" stroke-linejoin="round"/>
<path d="M78.6542 115.325C75.7643 115.764 73.0629 117.586 71.1154 119.848C68.9794 122.298 67.5972 125.251 66.2151 128.203C65.9638 128.769 65.6497 129.334 65.3984 129.962C63.7022 133.48 61.6918 136.936 58.5506 139.26C54.9068 141.899 49.9437 142.527 45.7345 140.831C44.6665 140.391 43.5985 139.888 42.5933 139.386C40.8342 138.569 39.0123 137.815 37.0648 137.941C36.3109 136.559 36.3109 134.8 37.002 133.418C37.693 132.036 39.3893 130.339 40.8971 130.025C40.7086 129.711 40.5829 129.397 40.3945 129.083" stroke="#4B2A7A" stroke-width="0.613874" stroke-miterlimit="10" stroke-linecap="round" stroke-linejoin="round"/>
<path d="M37.6926 52.6274C32.4154 50.4286 26.133 50.4286 20.9814 52.9415C18.4685 54.1352 15.9555 56.2083 15.7042 59.0354C15.5158 60.7944 16.2697 62.4278 16.7094 64.124C17.1492 65.8202 17.1492 67.8305 15.9555 69.087C9.23337 75.809 6.02935 84.667 6.53194 94.0276C6.78324 98.6765 7.7256 103.325 9.2962 107.723" stroke="#4B2A7A" stroke-width="0.613874" stroke-miterlimit="10" stroke-linecap="round" stroke-linejoin="round"/>
<path d="M28.7716 117.271C26.8241 117.146 24.8137 116.832 22.8034 116.203C18.28 114.821 14.1337 112.434 10.6783 109.167C10.1758 108.728 9.73598 108.225 9.29622 107.785C3.57924 101.629 0.500864 93.0847 1.06628 84.7293C1.3804 79.892 2.82535 75.2431 4.71007 70.7826C6.28067 67.0761 7.47432 63.3696 7.22303 59.2233C7.09738 57.3386 6.0922 54.9513 6.40632 53.1295C6.72044 51.1819 8.66798 49.1716 9.98728 47.8523C13.1913 44.7112 17.4005 42.7637 21.7354 41.8842C29.9653 40.188 38.7606 42.1355 45.6085 46.91" stroke="#4B2A7A" stroke-width="0.613874" stroke-miterlimit="10" stroke-linecap="round" stroke-linejoin="round"/>
<path d="M146.817 59.2221C134.378 44.4587 113.081 34.7212 88.9565 34.7212C72.5594 34.7212 57.4817 39.2444 45.5451 46.7203C42.7181 48.4794 40.0795 50.4897 37.6293 52.5628C31.1585 58.2797 26.1325 64.9389 22.9913 72.352C22.5516 73.3572 22.1746 74.2995 21.8605 75.3047C21.7349 75.556 21.672 75.8073 21.6092 76.0586C21.0438 77.7548 20.604 79.5138 20.2899 81.2729C19.7245 84.0371 19.4732 86.8641 19.4732 89.6911C19.4732 93.1463 19.8501 96.5388 20.6669 99.8684C21.1695 101.879 21.7977 103.889 22.4888 105.774C24.0594 109.794 26.1325 113.564 28.7712 117.145C31.9752 121.542 35.8703 125.5 40.3936 129.018" stroke="#4B2A7A" stroke-width="0.613874" stroke-miterlimit="10" stroke-linecap="round" stroke-linejoin="round"/>
<path d="M132.368 132.79C128.85 134.989 125.081 136.936 121.123 138.57C118.359 139.701 115.406 140.706 112.453 141.585C110.694 142.088 108.935 142.528 107.05 142.905C103.469 143.658 99.7629 144.224 95.9306 144.475C93.6689 144.664 91.3445 144.726 89.02 144.726C88.8315 144.726 88.4545 144.726 87.952 144.664C87.6378 144.664 87.3237 144.664 87.0096 144.601C84.9364 144.538 82.8632 144.412 80.79 144.224C80.3503 144.224 79.9733 144.161 79.5336 144.098C79.1566 144.098 78.7797 144.035 78.4655 144.035C78.3399 144.035 78.2771 144.035 78.2143 144.035C78.1514 144.035 78.1514 144.035 78.0886 144.035C78.0258 144.035 78.0258 144.035 78.0258 144.035C73.6281 143.47 69.3561 142.59 65.2097 141.46C62.948 140.769 60.6864 140.077 58.5504 139.198" stroke="#4B2A7A" stroke-width="0.613874" stroke-miterlimit="10" stroke-linecap="round" stroke-linejoin="round"/>
<path d="M83.1134 59.4751C82.7365 59.7892 82.2967 60.1662 81.7941 60.4175C81.3544 60.6687 80.9146 60.8572 80.4748 61.0457C77.6478 62.1137 74.2553 62.1137 71.5538 63.6214C68.0357 65.6317 64.9573 69.4011 63.5124 71.5999C60.5596 64.8151 65.3971 59.7892 68.2242 58.0302C65.3343 57.7161 60.2455 61.7996 58.0467 63.8727C60.1827 56.6481 66.7792 54.198 69.8576 53.8839C68.5383 52.439 65.2714 52.439 63.7637 52.6274C66.4023 51.0569 68.7896 49.9889 70.8628 49.4235C71.7423 49.1722 72.559 48.9837 73.3757 48.9209C75.072 51.5595 77.0823 54.0095 79.4697 56.2711C80.6005 57.402 81.857 58.4699 83.1134 59.4751Z" fill="#010101"/>
<path d="M72.3072 24.9863C68.789 23.9811 65.7107 21.7195 64.1401 18.5784C61.5015 13.3013 64.1401 6.13948 69.7942 4.19197C76.3907 1.86753 83.2385 4.75738 88.3273 9.21779C89.7722 5.57407 92.9763 2.6214 96.7457 1.67906C101.52 0.485431 106.923 2.49577 109.813 6.51642C111.132 8.33828 111.823 10.5371 111.949 12.7987C114.839 11.8564 117.917 11.4166 120.933 11.9192C124.891 12.4846 128.723 14.7462 130.482 18.2015C132.241 21.5939 131.801 25.9286 129.54 28.9441C127.781 31.2686 125.079 32.902 122.127 33.5302C118.923 37.865 117.917 43.8959 119.551 49.0474C118.797 48.482 117.855 48.1679 116.724 48.1679C111.384 47.9794 106.169 47.791 100.829 47.0371C98.9445 46.7858 94.9238 45.9691 93.0391 45.655C91.1544 45.2152 87.1965 44.3357 85.3117 43.896C84.495 43.7075 83.6783 43.4562 82.8616 43.2049C78.5267 41.9484 74.506 40.3779 70.2968 38.7445C70.0455 38.6188 69.7942 38.556 69.5429 38.4932L69.6057 38.4304C72.1815 34.3469 73.1239 29.5095 72.3072 24.9863Z" fill="url(#paint7_linear_2932_261883)"/>
<path d="M119.617 48.9224C121.564 50.3045 122.193 53.0058 120.936 55.6444C120.81 55.8957 120.685 56.0842 120.559 56.3354C118.989 58.8484 116.036 60.1048 113.146 60.9215C106.612 62.8062 96.6232 62.3664 89.9011 61.11C83.2417 59.6651 73.881 56.147 68.6038 51.8122C66.2793 49.9275 64.0804 47.6031 63.6407 44.6504C63.5778 44.2107 63.515 43.7709 63.5778 43.3311C63.6407 40.0015 66.1536 37.6771 69.1692 38.1797C69.2948 38.1797 69.4205 38.2425 69.5461 38.2425C69.7974 38.3053 70.0487 38.3681 70.3 38.4938C74.5092 40.1272 78.5299 41.6978 82.8648 42.9542C83.6815 43.2055 84.4982 43.4568 85.3149 43.6453C87.1368 44.1478 91.1576 45.0274 93.0423 45.4043C94.927 45.7184 98.9477 46.5351 100.832 46.7864C106.172 47.6031 111.387 47.7287 116.727 47.9172C117.921 48.0428 118.863 48.357 119.617 48.9224Z" fill="url(#paint8_linear_2932_261883)"/>
<path d="M72.306 24.9829C73.1856 29.5061 72.2432 34.4063 69.6674 38.2385L69.6046 38.3013" stroke="#D19B2A" stroke-width="0.613874" stroke-miterlimit="10" stroke-linecap="round" stroke-linejoin="round"/>
<path d="M94.5472 16.6306C93.0394 14.0549 90.9034 11.4163 88.3277 9.15472C83.1761 4.69431 76.3283 1.86728 69.7946 4.1289C64.1404 6.07641 61.5018 13.2382 64.1404 18.5153C65.711 21.6565 68.7894 23.9181 72.3075 24.9232C72.4332 24.9861 72.5588 24.9861 72.6845 25.0489C74.9461 25.6143 77.3335 25.6771 79.5951 25.1117" stroke="#D19B2A" stroke-width="0.613874" stroke-miterlimit="10" stroke-linecap="round" stroke-linejoin="round"/>
<path d="M111.95 12.6728C114.84 11.7304 117.919 11.2907 120.934 11.7933C124.892 12.3587 128.724 14.6203 130.483 18.0755C132.242 21.468 131.803 25.8028 129.541 28.8182C127.782 31.1427 125.081 32.7761 122.128 33.4043C121.248 33.5928 120.306 33.7184 119.426 33.7184C115.468 33.7812 111.511 32.2107 108.558 29.6349" stroke="#D19B2A" stroke-width="0.613874" stroke-miterlimit="10" stroke-linecap="round" stroke-linejoin="round"/>
<path d="M119.613 48.9191C117.917 43.7676 118.922 37.7366 122.189 33.4019" stroke="#D19B2A" stroke-width="0.613874" stroke-miterlimit="10" stroke-linecap="round" stroke-linejoin="round"/>
<path d="M88.3297 9.15383C89.7747 5.51011 92.9787 2.55744 96.7481 1.6151C101.523 0.421466 106.926 2.4318 109.815 6.45246C111.135 8.27432 111.826 10.4731 111.952 12.7347C112.14 15.4361 111.449 18.1375 110.004 20.3991" stroke="#D19B2A" stroke-width="0.613874" stroke-miterlimit="10" stroke-linecap="round" stroke-linejoin="round"/>
<path d="M120.936 55.6444C120.81 55.8957 120.685 56.0842 120.559 56.3354C118.989 58.8484 116.036 60.1048 113.146 60.9215C106.612 62.8062 96.6232 62.3664 89.9011 61.11C83.2417 59.6651 73.881 56.147 68.6038 51.8122C66.2793 49.9275 64.0804 47.6031 63.6407 44.6504C63.5778 44.2107 63.515 43.7709 63.5778 43.3311C63.6407 40.0015 66.1536 37.6771 69.1692 38.1797C69.2948 38.1797 69.4205 38.2425 69.5461 38.2425C69.7974 38.3053 70.0487 38.3681 70.3 38.4938C74.5092 40.1272 78.5299 41.6978 82.8648 42.9542C83.6815 43.2055 84.4982 43.4568 85.3149 43.6453C87.1368 44.1478 91.1576 45.0274 93.0423 45.4043C94.927 45.7184 98.9477 46.5351 100.832 46.7864C106.172 47.6031 111.387 47.7287 116.727 47.9172C117.858 47.98 118.8 48.2941 119.554 48.7967C121.564 50.3045 122.193 53.0058 120.936 55.6444Z" stroke="#4B2A7A" stroke-width="0.613874" stroke-miterlimit="10" stroke-linecap="round" stroke-linejoin="round"/>
<path d="M71.4913 44.2723C71.6169 43.5185 70.5489 42.8902 69.4809 43.9582C68.2244 45.2775 70.0463 47.4763 72.0567 46.6596C73.6901 45.9685 74.1299 44.398 72.999 42.7646C72.1195 41.5081 70.4232 41.6338 69.2924 42.3248C68.5385 42.6389 67.7218 43.7069 67.659 45.0262C67.659 47.0365 69.6694 48.7956 71.6797 48.4814C72.7477 48.293 73.6901 47.7276 74.0042 47.3506" stroke="url(#paint9_linear_2932_261883)" stroke-width="0.306937" stroke-linecap="round"/>
<path d="M76.8309 49.9902C76.7681 50.7441 77.8989 51.3095 78.9041 50.2415C80.2234 48.8594 78.1502 46.7234 76.1398 47.7286C74.5064 48.4825 74.1923 50.1158 75.386 51.6864C76.3911 52.88 77.9617 52.7544 79.2182 52.0005C79.9721 51.6236 80.7888 50.5556 80.6632 49.1735C80.5375 47.226 78.4643 45.5926 76.5168 45.9695C75.4488 46.2208 74.6321 46.8491 74.2551 47.226" stroke="url(#paint10_linear_2932_261883)" stroke-width="0.306937" stroke-linecap="round"/>
<path d="M87.7645 51.6211C87.7017 50.8045 86.508 50.6788 85.6913 51.8724C84.7489 53.443 87.2619 55.0764 88.8953 53.6943C90.2774 52.5635 90.1518 50.8673 88.7068 49.6736C87.4504 48.7313 85.9426 49.2339 84.9374 50.2391C84.372 50.7416 83.8066 51.9353 84.1835 53.2545C84.8118 55.1392 87.1991 56.2072 89.021 55.3905C90.0261 54.9508 90.6544 54.1969 90.9057 53.6943" stroke="url(#paint11_linear_2932_261883)" stroke-width="0.306937" stroke-linecap="round"/>
<path d="M94.487 55.454C94.6754 56.2078 95.8691 56.3335 96.4973 55.077C97.3769 53.3808 94.7383 51.9359 93.1677 53.3808C91.8483 54.5745 91.974 56.2078 93.6074 57.4015C94.9267 58.281 96.4345 57.6528 97.314 56.7104C97.8795 56.2078 98.382 54.8886 97.9423 53.5693C97.2512 51.6218 94.8011 50.7423 92.9792 51.6218C92.0368 52.1244 91.4086 53.0039 91.1573 53.4436" stroke="url(#paint12_linear_2932_261883)" stroke-width="0.306937" stroke-linecap="round"/>
<path d="M105.794 54.0711C105.417 53.3801 104.16 53.6314 104.035 55.0763C103.909 56.8981 106.736 57.3379 107.741 55.4532C108.558 53.8198 107.804 52.3749 105.857 51.8723C104.286 51.4954 103.155 52.6262 102.653 53.9455C102.339 54.6365 102.276 55.8302 102.967 56.7097C104.223 58.5944 107.49 58.5944 108.872 56.7725C109.438 56.0186 109.689 55.1391 109.689 54.7622" stroke="url(#paint13_linear_2932_261883)" stroke-width="0.306937" stroke-linecap="round"/>
<path d="M113.521 54.9524C114.023 55.6434 115.091 55.2665 115.217 53.8215C115.28 51.9997 112.327 51.6856 111.51 53.6959C110.819 55.2665 111.573 56.837 113.521 57.214C115.091 57.5281 116.222 56.2716 116.599 55.078C116.913 54.3869 116.787 53.2561 116.159 52.3766C114.84 50.5548 111.573 50.7432 110.254 52.6279C109.688 53.3818 109.563 54.1985 109.563 54.7639" stroke="url(#paint14_linear_2932_261883)" stroke-width="0.306937" stroke-linecap="round"/>
<path d="M62.6972 72.2266C64.3307 72.2266 65.7128 73.6715 65.7128 75.4305C65.7128 77.1267 64.3307 78.6345 62.6972 78.6345C61.0638 78.6345 59.6817 77.1895 59.6817 75.4305C59.6817 73.7343 61.0638 72.2266 62.6972 72.2266Z" fill="#633A90"/>
<path d="M115.125 102.908C117.765 92.3742 113.22 82.1595 104.975 80.093C96.729 78.0265 87.9044 84.8909 85.2643 95.4249C82.6242 105.959 87.1684 116.174 95.4141 118.24C103.66 120.307 112.484 113.442 115.125 102.908Z" fill="white"/>
<path d="M108.868 102.635C108.051 106.09 106.167 108.855 104.094 110.614C101.895 112.31 99.5074 113.001 97.3085 112.436C95.1097 111.933 93.3506 110.174 92.2198 107.661C91.1518 105.085 90.8377 101.819 91.7172 98.3633C92.5339 94.908 94.4186 92.1438 96.4918 90.3848C98.6907 88.6886 101.078 87.9975 103.277 88.5629C105.476 89.0655 107.235 90.8245 108.366 93.3374C109.434 95.9132 109.748 99.2428 108.868 102.635Z" fill="#010101"/>
<path d="M98.8801 114.447C98.189 114.447 97.4351 114.384 96.7441 114.133C94.0426 113.505 91.781 111.431 90.3989 108.29C89.0796 105.149 88.8911 101.443 89.7706 97.7988C90.6502 94.2179 92.5977 90.9512 95.2363 88.8152C97.9377 86.6792 100.953 85.9254 103.655 86.6792C106.356 87.3075 108.618 89.3806 110 92.5217C111.382 95.7257 111.571 99.4322 110.628 103.076C109.749 106.657 107.801 109.861 105.225 111.997C103.215 113.63 101.016 114.447 98.8801 114.447ZM101.582 90.1973C100.262 90.1973 98.9429 90.7627 97.5608 91.8307C95.6132 93.4641 94.1055 95.977 93.4144 98.7412C92.7234 101.631 92.849 104.521 93.8542 106.908C94.7337 108.918 96.1158 110.238 97.6864 110.615C99.3199 111.054 101.079 110.552 102.838 109.17C104.786 107.536 106.293 105.023 106.984 102.259V102.196C107.738 99.3694 107.55 96.5424 106.545 94.0923C105.665 92.082 104.283 90.7627 102.712 90.3858C102.398 90.1973 102.021 90.1973 101.582 90.1973Z" fill="url(#paint15_linear_2932_261883)"/>
<path d="M105.856 98.1774C107.834 98.1774 109.437 96.5742 109.437 94.5965C109.437 92.6188 107.834 91.0156 105.856 91.0156C103.879 91.0156 102.276 92.6188 102.276 94.5965C102.276 96.5742 103.879 98.1774 105.856 98.1774Z" fill="white"/>
<path d="M101.649 72.9187C102.591 73.5469 102.905 74.3008 103.345 75.1803C103.785 75.9342 104.225 76.6881 104.727 77.4419C106.738 80.2061 109.565 82.2793 112.832 83.2216C114.402 83.7242 116.099 83.9127 117.732 83.9127C118.8 83.9127 119.617 84.7294 119.617 85.7974C119.617 86.8025 118.8 87.682 117.795 87.682C114.716 87.7449 111.575 86.9282 108.874 85.3576C105.356 83.2845 102.78 79.892 101.461 76.0598C101.146 75.1175 100.832 74.1751 101.398 73.0443C101.461 72.9187 101.586 72.8559 101.649 72.9187Z" fill="#4B2A7A"/>
<path d="M35.6194 69.023C35.054 69.714 34.4886 70.4051 33.8603 71.0333C31.2217 73.609 27.5779 75.2424 23.8085 75.3681C23.1802 75.3681 22.552 75.3681 21.9238 75.3053C22.2379 74.3001 22.6148 73.2949 23.0546 72.3526C26.3843 72.541 29.8396 71.5987 32.541 69.5256C33.1693 69.023 33.7975 68.5204 34.3629 67.955C34.9283 67.3896 35.4309 66.7614 36.4361 66.3844C36.4989 66.3216 36.5617 66.3844 36.5617 66.4472C36.6874 67.5781 36.122 68.3319 35.6194 69.023Z" fill="#4B2A7A"/>
<path d="M110.442 142.087C109.311 142.401 108.18 142.653 107.049 142.904C103.468 143.658 99.7617 144.223 95.9295 144.475C95.3012 144.537 94.6102 144.6 93.9191 144.6C93.9191 143.281 95.2384 141.648 94.7358 138.695C94.0448 134.988 91.4061 134.737 91.1549 131.659C90.9036 128.392 93.7935 127.701 93.4793 124.309C93.228 121.544 91.2805 120.979 91.1549 117.775C91.1549 117.272 91.092 115.136 92.16 113.691C95.3641 109.545 107.175 113.315 107.803 117.524C107.992 118.906 106.798 119.346 106.798 121.607C106.735 124.623 108.871 125.251 109.123 128.141C109.437 131.533 106.547 132.287 106.798 135.491C107.049 138.821 110.379 140.454 110.442 142.087Z" fill="#B1D9EA" stroke="#4B2A7A" stroke-width="0.613874" stroke-miterlimit="10" stroke-linecap="round" stroke-linejoin="round"/>
<path d="M33.3594 116.08C32.6055 119.409 35.3698 120.477 34.6787 123.618C34.6787 123.744 34.6159 123.87 34.6159 123.995C32.4799 121.859 30.5323 119.598 28.7733 117.211C26.009 113.441 23.8102 109.358 22.2396 105.086C26.1975 102.761 33.9876 102.259 35.998 105.777C36.8775 107.347 36.5634 109.421 36.5006 109.923C35.9352 113.064 33.9248 113.441 33.3594 116.08Z" fill="#B1D9EA" stroke="#4B2A7A" stroke-width="0.613874" stroke-miterlimit="10" stroke-linecap="round" stroke-linejoin="round"/>
<defs>
<linearGradient id="paint0_linear_2932_261883" x1="97.2854" y1="122.752" x2="97.8069" y2="122.752" gradientUnits="userSpaceOnUse">
<stop stop-color="#ECDAAC"/>
<stop offset="0.3411" stop-color="#F6B519"/>
<stop offset="0.7578" stop-color="#F6EFE3"/>
<stop offset="1" stop-color="#F6C64E"/>
</linearGradient>
<linearGradient id="paint1_linear_2932_261883" x1="97.8144" y1="123.828" x2="99.209" y2="123.828" gradientUnits="userSpaceOnUse">
<stop stop-color="#ECDAAC"/>
<stop offset="0.3411" stop-color="#F6B519"/>
<stop offset="0.7578" stop-color="#F6EFE3"/>
<stop offset="1" stop-color="#F6C64E"/>
</linearGradient>
<linearGradient id="paint2_linear_2932_261883" x1="99.5984" y1="121.996" x2="101.295" y2="121.996" gradientUnits="userSpaceOnUse">
<stop stop-color="#ECDAAC"/>
<stop offset="0.3411" stop-color="#F6B519"/>
<stop offset="0.7578" stop-color="#F6EFE3"/>
<stop offset="1" stop-color="#F6C64E"/>
</linearGradient>
<linearGradient id="paint3_linear_2932_261883" x1="96.6892" y1="121.639" x2="100.119" y2="121.639" gradientUnits="userSpaceOnUse">
<stop stop-color="#ECDAAC"/>
<stop offset="0.3411" stop-color="#F6B519"/>
<stop offset="0.7578" stop-color="#F6EFE3"/>
<stop offset="1" stop-color="#F6C64E"/>
</linearGradient>
<linearGradient id="paint4_linear_2932_261883" x1="117.389" y1="101.033" x2="172.679" y2="101.033" gradientUnits="userSpaceOnUse">
<stop stop-color="#ECB5D2"/>
<stop offset="1" stop-color="#E96BA7"/>
</linearGradient>
<linearGradient id="paint5_linear_2932_261883" x1="6.44148" y1="84.1379" x2="37.691" y2="84.1379" gradientUnits="userSpaceOnUse">
<stop stop-color="#ECB5D2"/>
<stop offset="1" stop-color="#E96BA7"/>
</linearGradient>
<linearGradient id="paint6_linear_2932_261883" x1="17.8661" y1="89.7689" x2="44.8058" y2="93.9371" gradientUnits="userSpaceOnUse">
<stop stop-color="#8B68AC"/>
<stop offset="0.3062" stop-color="#774D9F"/>
<stop offset="0.5198" stop-color="#774D9F"/>
<stop offset="0.9107" stop-color="#623D97"/>
</linearGradient>
<linearGradient id="paint7_linear_2932_261883" x1="78.4738" y1="29.1329" x2="131.572" y2="20.2691" gradientUnits="userSpaceOnUse">
<stop stop-color="#ECDAAC"/>
<stop offset="0.3411" stop-color="#F6B519"/>
<stop offset="0.7578" stop-color="#F6EFE3"/>
<stop offset="1" stop-color="#F6C64E"/>
</linearGradient>
<linearGradient id="paint8_linear_2932_261883" x1="62.8673" y1="46.2333" x2="120.645" y2="58.0521" gradientUnits="userSpaceOnUse">
<stop stop-color="#8B68AC"/>
<stop offset="0.3062" stop-color="#774D9F"/>
<stop offset="0.5198" stop-color="#774D9F"/>
<stop offset="0.9107" stop-color="#623D97"/>
</linearGradient>
<linearGradient id="paint9_linear_2932_261883" x1="73.3894" y1="39.7432" x2="68.2573" y2="51.7903" gradientUnits="userSpaceOnUse">
<stop stop-color="#ECDAAC"/>
<stop offset="0.3411" stop-color="#F6B519"/>
<stop offset="0.7578" stop-color="#F6EFE3"/>
<stop offset="1" stop-color="#F6C64E"/>
</linearGradient>
<linearGradient id="paint10_linear_2932_261883" x1="75.2179" y1="54.7169" x2="79.7147" y2="42.4207" gradientUnits="userSpaceOnUse">
<stop stop-color="#ECDAAC"/>
<stop offset="0.3411" stop-color="#F6B519"/>
<stop offset="0.7578" stop-color="#F6EFE3"/>
<stop offset="1" stop-color="#F6C64E"/>
</linearGradient>
<linearGradient id="paint11_linear_2932_261883" x1="88.2162" y1="46.6683" x2="86.6786" y2="59.6677" gradientUnits="userSpaceOnUse">
<stop stop-color="#ECDAAC"/>
<stop offset="0.3411" stop-color="#F6B519"/>
<stop offset="0.7578" stop-color="#F6EFE3"/>
<stop offset="1" stop-color="#F6C64E"/>
</linearGradient>
<linearGradient id="paint12_linear_2932_261883" x1="94.235" y1="60.5271" x2="95.0929" y2="47.4622" gradientUnits="userSpaceOnUse">
<stop stop-color="#ECDAAC"/>
<stop offset="0.3411" stop-color="#F6B519"/>
<stop offset="0.7578" stop-color="#F6EFE3"/>
<stop offset="1" stop-color="#F6C64E"/>
</linearGradient>
<linearGradient id="paint13_linear_2932_261883" x1="104.191" y1="49.3844" x2="108.107" y2="61.8774" gradientUnits="userSpaceOnUse">
<stop stop-color="#ECDAAC"/>
<stop offset="0.3411" stop-color="#F6B519"/>
<stop offset="0.7578" stop-color="#F6EFE3"/>
<stop offset="1" stop-color="#F6C64E"/>
</linearGradient>
<linearGradient id="paint14_linear_2932_261883" x1="115.227" y1="59.6168" x2="110.666" y2="47.3474" gradientUnits="userSpaceOnUse">
<stop stop-color="#ECDAAC"/>
<stop offset="0.3411" stop-color="#F6B519"/>
<stop offset="0.7578" stop-color="#F6EFE3"/>
<stop offset="1" stop-color="#F6C64E"/>
</linearGradient>
<linearGradient id="paint15_linear_2932_261883" x1="87.2837" y1="94.9709" x2="114.087" y2="106.273" gradientUnits="userSpaceOnUse">
<stop stop-color="#8B68AC"/>
<stop offset="0.3062" stop-color="#774D9F"/>
<stop offset="0.5198" stop-color="#774D9F"/>
<stop offset="0.9107" stop-color="#623D97"/>
</linearGradient>
</defs>
</svg>
