<svg width="182" height="146" viewBox="0 0 182 146" fill="none" xmlns="http://www.w3.org/2000/svg">
<path d="M180.074 85.0429C174.672 70.9109 161.356 60.9872 146.847 59.2914C134.411 44.5314 113.119 34.8589 88.9999 34.8589C72.6067 34.8589 57.5324 39.3811 45.5987 46.8553C42.7722 48.6139 40.1343 50.6238 37.6847 52.6965C26.379 62.4946 19.47 75.496 19.47 89.8163C19.47 95.155 20.4121 100.243 22.2336 105.142C23.8038 109.413 26.0021 113.495 28.7657 117.264C30.5244 119.65 32.4715 121.911 34.607 124.047C36.4285 125.806 38.3127 127.501 40.3854 129.134C40.5111 129.448 40.6995 129.762 40.888 130.077C39.3177 130.328 37.6847 132.024 36.9938 133.468C36.3029 134.85 36.3029 136.609 37.0566 137.99C39.0665 137.928 40.8251 138.618 42.5838 139.435C43.6515 139.937 44.6565 140.44 45.7242 140.88C49.8697 142.513 54.8944 141.885 58.5374 139.247C60.7357 140.063 62.934 140.817 65.1951 141.508C69.2778 142.701 73.5488 143.58 78.0083 144.083H78.0711C78.1339 144.083 78.1339 144.083 78.1967 144.083C78.2595 144.083 78.3852 144.083 78.448 144.083C79.2017 144.208 79.9554 144.208 80.7719 144.334C82.1537 144.334 83.5983 144.334 84.9801 144.334C85.671 144.46 86.2991 144.585 86.99 144.648V144.711C87.6809 144.711 88.309 144.711 88.9999 144.711C90.633 144.711 92.266 144.648 93.8991 144.585C99.4263 143.769 104.891 142.889 110.418 142.073C111.046 141.885 111.737 141.759 112.365 141.57C115.38 140.754 118.269 139.686 121.033 138.556C125.052 136.923 128.821 134.976 132.276 132.777C144.586 136.734 160.163 130.265 164.434 117.452C166.255 112.05 167.386 106.021 171.469 102.001C174.169 99.3632 177.938 97.7302 179.759 94.4013C181.455 91.6377 181.267 88.0577 180.074 85.0429ZM163.617 100.431C161.168 103.823 160.854 108.219 159.66 112.239C157.085 121.095 149.611 128.318 140.755 130.642C136.672 131.71 132.276 131.772 128.13 130.83C125.806 129.511 123.733 127.753 121.975 125.492C114.375 115.819 116.51 99.9913 126.434 92.7055C122.289 90.5072 121.975 85.0429 122.98 81.0231C124.299 75.8728 127.879 74.1142 132.715 72.4183C143.204 68.7755 155.452 70.1572 164.622 76.5009C167.323 78.3852 169.773 80.7091 171.28 83.5982C175.865 92.5799 168.014 94.4641 163.617 100.431Z" fill="#DAD0E7"/>
<path d="M97.8542 122.6C97.6658 122.725 97.5402 122.788 97.3518 122.914C97.3518 122.914 97.3518 122.914 97.3518 122.851V122.788C97.4774 122.725 97.6658 122.662 97.8542 122.6Z" fill="url(#paint0_linear_2932_255050)"/>
<path d="M99.239 123.729C99.0506 123.855 98.8622 123.98 98.6737 124.106C98.4853 124.043 98.1712 123.918 97.8572 123.604C97.92 123.604 97.92 123.604 97.9828 123.604C98.1713 123.604 98.4225 123.666 98.6109 123.666C98.7366 123.666 98.7994 123.666 98.925 123.666C98.9878 123.666 99.1134 123.729 99.239 123.729Z" fill="url(#paint1_linear_2932_255050)"/>
<path d="M101.31 122.85C101.184 122.85 101.121 122.912 100.995 122.975C100.995 122.912 100.933 122.912 100.933 122.912C100.807 122.724 100.744 122.536 100.619 122.41C100.556 122.347 100.493 122.222 100.43 122.159C100.367 122.033 100.242 121.908 100.179 121.782L100.116 121.719C99.9906 121.531 99.8021 121.342 99.6765 121.217L99.7393 121.154C99.8021 121.217 99.8649 121.279 99.9906 121.342C100.43 121.719 100.87 122.222 101.31 122.85Z" fill="url(#paint2_linear_2932_255050)"/>
<path d="M99.8651 121.217C99.2998 120.463 98.5461 119.772 97.7924 119.27C97.5412 119.207 97.3527 119.207 97.1015 119.207C97.2899 119.333 97.5412 119.458 97.7296 119.584C97.8552 119.647 97.9808 119.709 98.0436 119.835C98.1693 119.898 98.2321 119.961 98.3577 120.024C98.4833 120.149 98.6089 120.212 98.7345 120.338C98.8601 120.463 98.9858 120.589 99.1742 120.714C99.3627 120.84 99.4882 121.028 99.6767 121.217C99.8023 121.343 99.9908 121.531 100.116 121.719H100.179C100.054 121.468 99.9907 121.343 99.8651 121.217ZM97.29 122.787C97.1015 122.976 96.9131 123.101 96.6619 123.29C96.7247 123.29 96.7246 123.29 96.7875 123.29C96.9759 123.164 97.1643 123.038 97.3528 122.913C97.4784 122.787 97.6668 122.724 97.8552 122.599C97.6668 122.661 97.4784 122.724 97.29 122.787ZM98.923 123.666C98.7974 123.666 98.7346 123.666 98.6089 123.666C98.4205 123.666 98.1693 123.604 97.9808 123.604C97.918 123.604 97.918 123.604 97.8552 123.604C98.1692 123.855 98.4833 124.043 98.6717 124.106C98.8602 123.98 99.0486 123.855 99.237 123.729C99.1114 123.729 98.9858 123.666 98.923 123.666Z" fill="url(#paint3_linear_2932_255050)"/>
<path d="M171.28 83.6567C175.865 92.5755 167.951 94.4598 163.617 100.427C161.167 103.818 160.853 108.215 159.66 112.235C157.085 121.091 149.611 128.314 140.754 130.637C136.672 131.705 132.275 131.768 128.13 130.826C125.806 129.507 123.733 127.748 121.974 125.487C114.374 115.815 116.51 99.9869 126.434 92.7011C122.288 90.5028 121.974 85.0385 122.979 81.0188C124.298 75.8685 127.878 74.1098 132.715 72.414C143.204 68.7711 155.452 70.1529 164.622 76.4966C167.323 78.4436 169.772 80.7675 171.28 83.6567Z" fill="url(#paint4_linear_2932_255050)" stroke="#4B2A7A" stroke-width="0.306937" stroke-miterlimit="10"/>
<path d="M20.977 52.9487C26.1902 50.4992 32.4083 50.4364 37.6843 52.6347C26.3786 62.4328 19.4696 75.4342 19.4696 89.7545C19.4696 99.741 22.8613 109.162 28.7654 117.202C26.8183 117.076 24.8084 116.762 22.7985 116.134C18.2762 114.752 14.1308 112.366 10.6763 109.099C10.1738 108.66 9.73411 108.157 9.29445 107.718C7.72421 103.321 6.78213 98.6733 6.53089 94.0255C6.02842 84.6042 9.2317 75.811 15.9523 69.0905C17.2085 67.8343 17.1456 65.8244 16.706 64.1286C16.2663 62.4328 15.5754 60.737 15.701 59.0412C16.0151 56.2148 18.4647 54.1421 20.977 52.9487Z" fill="url(#paint5_linear_2932_255050)"/>
<path d="M45.5979 46.7897C42.7715 48.5483 40.1335 50.4954 37.6839 52.6308C32.4079 50.4325 26.127 50.4325 20.9766 52.9449C18.4643 54.1382 15.9519 56.2109 15.7006 59.0373C15.5122 60.796 16.2659 62.429 16.7056 64.1248C17.1452 65.8206 17.1453 67.8305 15.9519 69.0867C9.23129 75.8072 6.02801 84.6632 6.53048 94.0216C6.78172 98.6695 7.7238 103.317 9.29403 107.714C3.57838 101.559 0.500736 93.0167 1.06602 84.6632C1.38007 79.8269 2.82471 75.1791 4.70899 70.7197C6.27923 67.014 7.47261 63.3083 7.22137 59.1629C7.09575 57.2787 6.09077 54.892 6.40482 53.0705C6.71886 51.1234 8.666 49.1136 9.985 47.7946C13.1883 44.6542 17.3965 42.7071 21.7303 41.8278C29.9583 40.132 38.7517 42.079 45.5979 46.7897Z" fill="#DAD0E7" stroke="#4B2A7A" stroke-width="0.306937" stroke-miterlimit="10"/>
<path d="M101.31 122.851C100.87 122.285 100.43 121.72 99.8649 121.28C99.2997 120.527 98.5459 119.836 97.7922 119.333C97.541 119.271 97.3526 119.271 97.1013 119.271C97.2897 119.396 97.541 119.522 97.7294 119.647C97.855 119.71 97.9806 119.773 98.0435 119.899C98.1691 119.961 98.2319 120.024 98.3575 120.087C98.4831 120.213 98.6087 120.275 98.7343 120.401C98.86 120.527 98.9856 120.652 99.1741 120.778C99.3625 120.904 99.4881 121.092 99.6765 121.28C99.8021 121.406 99.9906 121.594 100.116 121.783C100.116 121.846 100.179 121.846 100.179 121.846C100.305 121.971 100.367 122.097 100.43 122.222C100.493 122.285 100.556 122.411 100.619 122.474C100.744 122.662 100.87 122.851 100.933 122.976C100.933 123.039 100.995 123.039 100.995 123.039C101.058 123.102 101.121 123.227 101.121 123.29C101.058 123.227 100.995 123.102 100.995 123.039C101.121 122.913 101.184 122.851 101.31 122.851Z" fill="#DAD0E7"/>
<path d="M20.2852 81.3361L20.6621 99.9273C21.1645 101.937 21.7298 103.947 22.4835 105.831C23.0488 106.334 23.6769 106.773 24.2422 107.15C26.1265 108.344 28.262 108.972 30.5231 108.972C38.4999 108.972 44.9065 100.744 44.9065 90.5689C44.9065 80.3939 38.4371 72.166 30.5231 72.166C28.0735 72.166 25.6868 72.9825 23.6769 74.3643C22.9232 74.8668 22.2323 75.432 21.6042 76.1229L20.2852 81.3361Z" fill="white"/>
<path d="M39.1907 91.8239C39.1907 95.1528 38.1857 97.9791 36.6155 100.052C35.0452 102.062 33.0981 103.192 30.9626 103.192C28.8899 103.192 26.88 102.062 25.3098 100.052C23.7396 98.0419 22.7346 95.0899 22.7346 91.8239C22.7346 88.5579 23.7396 85.6687 25.3098 83.596C26.88 81.5861 28.8271 80.4556 30.9626 80.4556C33.0353 80.4556 35.0452 81.5861 36.6155 83.596C38.1229 85.5431 39.1907 88.4951 39.1907 91.8239Z" fill="#010101"/>
<path d="M38.1207 82.4029C36.1736 79.8906 33.6613 78.5088 31.0233 78.5088C28.3853 78.5088 25.8729 79.8906 23.863 82.4029C21.9787 84.9781 20.9109 88.1813 20.9109 91.7614C20.9109 95.4043 21.9787 98.7331 23.863 101.183C25.8101 103.695 28.3224 105.077 30.9604 105.077C33.5984 105.077 36.1108 103.695 38.1207 101.183C40.0049 98.6075 41.0728 95.4043 41.0728 91.8242C41.0728 88.3697 40.0049 84.9152 38.1207 82.4029ZM31.0233 101.308C29.139 101.308 27.7571 99.9893 26.8778 98.8587C25.496 97.1001 24.7423 94.5249 24.7423 91.7614C24.7423 89.0606 25.496 86.4855 26.8778 84.664C27.7571 83.5335 29.139 82.2145 31.0233 82.2145C31.5257 82.2145 32.0281 82.3401 32.5306 82.5285C33.6612 82.9682 34.6034 83.8475 35.1687 84.664C35.8596 85.5433 36.362 86.6739 36.7389 87.8044C37.1157 89.0606 37.367 90.3796 37.367 91.7614C37.367 94.4621 36.6133 97.0373 35.2315 98.8587C34.2893 99.9893 32.9075 101.308 31.0233 101.308Z" fill="url(#paint6_linear_2932_255050)"/>
<path d="M34.6708 88.5011C36.544 88.5011 38.0625 86.9826 38.0625 85.1094C38.0625 83.2363 36.544 81.7178 34.6708 81.7178C32.7976 81.7178 31.2791 83.2363 31.2791 85.1094C31.2791 86.9826 32.7976 88.5011 34.6708 88.5011Z" fill="white"/>
<path d="M52.6331 99.5481C53.0727 95.4656 55.8364 91.7599 59.605 90.064C63.5619 88.3054 68.3982 88.9963 71.7271 91.6971" stroke="#4B2A7A" stroke-width="0.613874" stroke-miterlimit="10" stroke-linecap="round" stroke-linejoin="round"/>
<path d="M46.6675 128.695C47.2956 128.255 47.7981 127.564 48.0493 126.811C48.5518 125.554 48.489 124.173 48.4262 122.854C48.1749 118.457 47.6724 113.998 48.2377 109.601C48.7402 105.895 50.122 102.19 52.6344 99.5518C53.1368 99.0493 53.6393 98.5468 54.2046 98.17C57.7219 95.532 63.1864 95.1552 66.3896 98.17" stroke="#4B2A7A" stroke-width="0.613874" stroke-miterlimit="10" stroke-linecap="round" stroke-linejoin="round"/>
<path d="M132.335 132.775C144.645 136.732 160.222 130.263 164.493 117.45C166.315 112.048 167.445 106.019 171.528 101.999C174.229 99.3611 177.997 97.7281 179.819 94.3992C181.389 91.5728 181.2 87.9928 180.07 84.978C174.668 70.846 161.353 60.9223 146.844 59.2265C141.002 58.5356 134.973 59.1637 129.194 61.4248" stroke="#4B2A7A" stroke-width="0.613874" stroke-miterlimit="10" stroke-linecap="round" stroke-linejoin="round"/>
<path d="M128.126 130.89C129.445 131.643 130.89 132.271 132.335 132.774" stroke="#4B2A7A" stroke-width="0.613874" stroke-miterlimit="10" stroke-linecap="round" stroke-linejoin="round"/>
<path d="M128.13 130.892C125.806 129.573 123.733 127.814 121.974 125.553C114.374 115.881 116.51 100.053 126.434 92.767C122.288 90.5688 121.974 85.1044 122.979 81.0847C124.298 75.9344 127.878 74.1757 132.715 72.4799C143.204 68.837 155.452 70.2188 164.622 76.5625C167.323 78.4467 169.772 80.7706 171.28 83.6598C175.865 92.5786 167.951 94.4629 163.617 100.43C161.167 103.821 160.853 108.218 159.66 112.238C157.085 121.094 149.611 128.317 140.754 130.641C136.609 131.771 132.275 131.834 128.13 130.892Z" stroke="#4B2A7A" stroke-width="0.613874" stroke-miterlimit="10" stroke-linecap="round" stroke-linejoin="round"/>
<path d="M40.4458 129.068C40.1946 128.565 40.0061 128.063 39.8805 127.498C39.6921 126.618 39.8177 125.613 40.3829 124.923C40.9482 124.232 42.016 123.855 42.8325 124.357C43.5234 124.797 43.7746 125.676 44.1515 126.43C44.7168 127.435 45.659 128.251 46.7267 128.691C47.292 128.879 47.8573 129.005 48.4854 129.005" stroke="#4B2A7A" stroke-width="0.613874" stroke-miterlimit="10" stroke-linecap="round" stroke-linejoin="round"/>
<path d="M40.4465 129.069C40.5721 129.383 40.7605 129.697 40.9489 130.011C39.3787 130.262 37.7456 131.958 37.0547 133.403C36.3638 134.785 36.4266 136.543 37.1175 137.925C39.1274 137.862 40.8861 138.553 42.6448 139.37C43.6497 139.872 44.7175 140.374 45.7853 140.814C49.9935 142.447 54.9554 141.819 58.5983 139.244C61.7388 136.983 63.7487 133.466 65.4445 129.948C65.6958 129.383 66.0099 128.818 66.2611 128.19C66.7636 127.185 67.2033 126.18 67.7685 125.175" stroke="#4B2A7A" stroke-width="0.613874" stroke-miterlimit="10" stroke-linecap="round" stroke-linejoin="round"/>
<path d="M37.748 52.631C32.4721 50.4327 26.1911 50.4327 21.0408 52.945C18.5284 54.1384 16.016 56.2111 15.7648 59.0374C15.5763 60.7961 16.33 62.4291 16.7697 64.1249C17.2094 65.8207 17.2094 67.8306 16.016 69.0868C9.29542 75.8073 6.09214 84.6633 6.59462 94.0217C6.84585 98.6696 7.78801 103.317 9.35824 107.714" stroke="#4B2A7A" stroke-width="0.613874" stroke-miterlimit="10" stroke-linecap="round" stroke-linejoin="round"/>
<path d="M28.7649 117.259C26.8178 117.133 24.8079 116.819 22.798 116.191C18.2758 114.809 14.1304 112.422 10.6759 109.156C10.1734 108.717 9.7337 108.214 9.29403 107.775C3.57838 101.619 0.500736 93.0774 1.06602 84.7238C1.38007 79.8876 2.82471 75.2397 4.70899 70.7803C6.27923 67.0746 7.47261 63.3689 7.22137 59.2236C7.09575 57.3393 6.09077 54.9526 6.40482 53.1312C6.71886 51.1841 8.666 49.1742 9.985 47.8552C13.1883 44.7148 17.3965 42.7678 21.7303 41.8884C29.9583 40.1926 38.7517 42.1397 45.5979 46.9131" stroke="#4B2A7A" stroke-width="0.613874" stroke-miterlimit="10" stroke-linecap="round" stroke-linejoin="round"/>
<path d="M146.847 59.2243C134.411 44.4643 113.119 34.729 88.9999 34.729C72.6067 34.729 57.5324 39.2512 45.5986 46.7254C42.7722 48.4841 40.1343 50.4939 37.6847 52.5666C31.1525 58.2194 26.1277 64.8771 22.9873 72.2885C22.5476 73.2934 22.1707 74.2355 21.8567 75.2405C21.7311 75.4917 21.6683 75.7429 21.6055 75.9942C21.0402 77.69 20.6005 79.4486 20.2864 81.2073C19.7212 83.9708 19.47 86.7972 19.47 89.6236C19.47 93.0781 19.9097 96.4697 20.6634 99.7986C21.1658 101.808 21.7939 103.818 22.4848 105.703C22.5476 105.828 22.6104 106.017 22.6732 106.142C22.9245 106.833 23.2385 107.461 23.5526 108.152C23.8038 108.717 24.055 109.22 24.3063 109.722C24.6203 110.35 24.9344 110.916 25.2484 111.481C26.3162 113.365 27.4467 115.249 28.7657 117.008C31.969 121.405 35.8632 125.362 40.3854 128.879" stroke="#4B2A7A" stroke-width="0.613874" stroke-miterlimit="10" stroke-linecap="round" stroke-linejoin="round"/>
<path d="M132.338 132.775C128.821 134.973 125.052 136.92 121.095 138.553C118.332 139.684 115.38 140.689 112.428 141.568C110.669 142.071 108.91 142.51 107.026 142.887C103.446 143.641 99.7401 144.206 95.9087 144.457C93.6475 144.646 91.3236 144.709 88.9997 144.709C88.8112 144.709 88.4344 144.709 87.9319 144.646C87.6179 144.646 87.3038 144.646 86.9898 144.583C84.9171 144.52 82.8443 144.394 80.7716 144.206C80.332 144.206 79.9551 144.143 79.5155 144.08C79.1386 144.08 78.7618 144.018 78.4477 144.018C78.3221 144.018 78.2593 144.018 78.1965 144.018C78.1337 144.018 78.1336 144.018 78.0708 144.018H78.008C73.6114 143.452 69.3403 142.573 65.1949 141.442C62.9337 140.752 60.6726 140.061 58.5371 139.181" stroke="#4B2A7A" stroke-width="0.613874" stroke-miterlimit="10" stroke-linecap="round" stroke-linejoin="round"/>
<path d="M83.1586 59.4776C82.7818 59.7916 82.342 60.1685 81.8396 60.4197C81.3999 60.671 80.9602 60.8594 80.5206 61.0478C77.6941 62.1156 74.3025 62.1156 71.6017 63.623C68.0843 65.6328 65.0067 69.4013 63.562 71.5996C60.61 64.8163 65.4463 59.7916 68.2727 58.033C65.3835 57.719 60.296 61.8015 58.0977 63.8742C60.2332 56.6512 66.8281 54.2017 69.9058 53.8876C68.5868 52.4431 65.3207 52.4431 63.8133 52.6315C66.4513 51.0613 68.8381 49.9935 70.9108 49.4282C71.7901 49.177 72.6066 48.9886 73.4232 48.9258C75.119 51.5637 77.1289 54.0133 79.5156 56.2744C80.6462 57.4049 81.8396 58.4727 83.1586 59.4776Z" fill="#010101"/>
<path d="M72.288 24.9966C68.7706 23.9916 65.693 21.7305 64.1227 18.5901C61.4847 13.3142 64.1227 6.15401 69.7756 4.20695C76.3706 1.88304 83.2168 4.77223 88.3043 9.23163C89.749 5.58874 92.9523 2.63674 96.7208 1.69461C101.494 0.50125 106.896 2.51113 109.785 6.53087C111.104 8.35232 111.795 10.5506 111.921 12.8117C114.81 11.8696 117.888 11.4299 120.902 11.9324C124.859 12.4977 128.691 14.7588 130.449 18.2133C132.208 21.6049 131.768 25.9387 129.507 28.9535C127.749 31.2774 125.048 32.9104 122.096 33.5385C118.893 37.8723 117.888 43.9019 119.521 49.0522C118.767 48.4869 117.825 48.1729 116.694 48.1729C111.355 47.9845 106.142 47.796 100.803 47.0423C98.9191 46.7911 94.8993 45.9746 93.015 45.6605C91.1308 45.2209 87.1737 44.3416 85.2895 43.9019C84.4729 43.7135 83.6565 43.4622 82.84 43.211C78.5061 41.9548 74.4863 40.3846 70.2781 38.7516C70.0268 38.626 69.7756 38.5632 69.5243 38.5004L69.5871 38.4376C72.2251 34.355 73.1673 29.5188 72.288 24.9966Z" fill="url(#paint7_linear_2932_255050)"/>
<path d="M119.648 48.9258C121.595 50.3076 122.223 53.0083 120.967 55.6463C120.841 55.8975 120.716 56.0859 120.59 56.3372C119.02 58.8495 116.068 60.1057 113.179 60.9222C106.646 62.8064 96.6597 62.3668 89.9391 61.1106C83.2813 59.666 73.9227 56.1487 68.6467 51.815C66.3228 49.9307 64.1245 47.6068 63.6848 44.6548C63.622 44.2151 63.5591 43.7755 63.622 43.3358C63.6848 40.007 66.1971 37.6831 69.212 38.1855C69.3376 38.1855 69.4632 38.2483 69.5888 38.2483C69.8401 38.3111 70.0914 38.3739 70.3426 38.4996C74.5508 40.1326 78.5706 41.7028 82.9045 42.959C83.721 43.2102 84.5375 43.4614 85.3541 43.6499C87.1755 44.1523 91.1953 45.0316 93.0796 45.4085C94.9638 45.7225 98.9837 46.5391 100.868 46.7903C106.207 47.6068 111.42 47.7324 116.759 47.9208C117.889 48.0464 118.894 48.3605 119.648 48.9258Z" fill="url(#paint8_linear_2932_255050)"/>
<path d="M72.2873 24.9951C73.1666 29.5173 72.2245 34.4164 69.6493 38.2477L69.5864 38.3105" stroke="#D19B2A" stroke-width="0.613874" stroke-miterlimit="10" stroke-linecap="round" stroke-linejoin="round"/>
<path d="M94.5232 16.6432C93.0158 14.0681 90.8803 11.4301 88.3051 9.16902C83.1547 4.70962 76.3085 1.88324 69.7763 4.14435C64.1235 6.09141 61.4855 13.2516 64.1235 18.5275C65.6937 21.6679 68.7714 23.929 72.2887 24.934C72.4143 24.9968 72.5399 24.9968 72.6655 25.0596C74.9267 25.6249 77.3134 25.6877 79.5746 25.1224" stroke="#D19B2A" stroke-width="0.613874" stroke-miterlimit="10" stroke-linecap="round" stroke-linejoin="round"/>
<path d="M111.981 12.6857C114.871 11.7436 117.948 11.3039 120.963 11.8064C124.92 12.3717 128.752 14.6328 130.51 18.0873C132.269 21.4789 131.829 25.8127 129.568 28.8275C127.809 31.1514 125.109 32.7844 122.157 33.4125C121.277 33.6009 120.335 33.7266 119.456 33.7266C115.499 33.7894 111.542 32.2192 108.59 29.644" stroke="#D19B2A" stroke-width="0.613874" stroke-miterlimit="10" stroke-linecap="round" stroke-linejoin="round"/>
<path d="M119.646 48.9224C117.95 43.7721 118.955 37.7425 122.221 33.4087" stroke="#D19B2A" stroke-width="0.613874" stroke-miterlimit="10" stroke-linecap="round" stroke-linejoin="round"/>
<path d="M88.3687 9.16766C89.8133 5.52477 93.0166 2.57277 96.7851 1.63065C101.559 0.437285 106.96 2.44716 109.849 6.46691C111.168 8.28835 111.859 10.4866 111.985 12.7478C112.173 15.4485 111.482 18.1493 110.038 20.4104" stroke="#D19B2A" stroke-width="0.613874" stroke-miterlimit="10" stroke-linecap="round" stroke-linejoin="round"/>
<path d="M120.903 55.6463C120.778 55.8975 120.652 56.0859 120.526 56.3372C118.956 58.8495 116.004 60.1057 113.115 60.9222C106.583 62.8064 96.596 62.3668 89.8754 61.1106C83.2176 59.666 73.859 56.1487 68.583 51.815C66.259 49.9307 64.0607 47.6068 63.621 44.6548C63.5582 44.2151 63.4954 43.7755 63.5582 43.3358C63.6211 40.007 66.1334 37.6831 69.1483 38.1855C69.2739 38.1855 69.3995 38.2483 69.5251 38.2483C69.7764 38.3111 70.0277 38.3739 70.2789 38.4996C74.4871 40.1326 78.5069 41.7028 82.8408 42.959C83.6573 43.2102 84.4737 43.4614 85.2903 43.6499C87.1117 44.1523 91.1316 45.0316 93.0159 45.4085C94.9001 45.7225 98.9199 46.5391 100.804 46.7903C106.143 47.6068 111.356 47.7324 116.695 47.9208C117.826 47.9836 118.768 48.2977 119.521 48.8001C121.594 50.3076 122.222 53.0083 120.903 55.6463Z" stroke="#4B2A7A" stroke-width="0.613874" stroke-miterlimit="10" stroke-linecap="round" stroke-linejoin="round"/>
<path d="M71.5333 44.2791C71.659 43.5254 70.5912 42.8973 69.5234 43.965C68.2672 45.284 70.0887 47.4823 72.0986 46.6658C73.7316 45.9749 74.1713 44.4047 73.0407 42.7717C72.1614 41.5155 70.4656 41.6411 69.335 42.332C68.5813 42.6461 67.7647 43.7138 67.7019 45.0328C67.7019 47.0426 69.7118 48.8013 71.7217 48.4872C72.7895 48.2988 73.7317 47.7336 74.0457 47.3567" stroke="url(#paint9_linear_2932_255050)" stroke-width="0.306937" stroke-linecap="round"/>
<path d="M76.8711 49.9976C76.8083 50.7513 77.9389 51.3166 78.9438 50.2488C80.2628 48.867 78.1901 46.7315 76.1802 47.7365C74.5471 48.4902 74.2331 50.1232 75.4265 51.6934C76.4314 52.8868 78.0017 52.7611 79.2579 52.0074C80.0116 51.6306 80.8281 50.5628 80.7025 49.1811C80.5769 47.234 78.5042 45.601 76.5571 45.9778C75.4893 46.2291 74.6728 46.8571 74.2959 47.234" stroke="url(#paint10_linear_2932_255050)" stroke-width="0.306937" stroke-linecap="round"/>
<path d="M87.8044 51.6269C87.7416 50.8104 86.5483 50.6848 85.7318 51.8782C84.7896 53.4484 87.302 55.0814 88.935 53.6996C90.3168 52.5691 90.1912 50.8732 88.7466 49.6799C87.4904 48.7377 85.983 49.2402 84.978 50.2452C84.4127 50.7476 83.8475 51.941 84.2243 53.26C84.8524 55.1442 87.2391 56.212 89.0606 55.3954C90.0656 54.9558 90.6937 54.2021 90.9449 53.6996" stroke="url(#paint11_linear_2932_255050)" stroke-width="0.306937" stroke-linecap="round"/>
<path d="M94.5262 55.4594C94.7146 56.2131 95.908 56.3387 96.5361 55.0825C97.4154 53.3867 94.7774 51.9421 93.2072 53.3867C91.8882 54.5801 92.0138 56.2131 93.6468 57.4064C94.9658 58.2857 96.4733 57.6577 97.3526 56.7155C97.9179 56.2131 98.4204 54.8941 97.9807 53.5751C97.2898 51.628 94.8402 50.7487 93.0188 51.628C92.0766 52.1305 91.4485 53.0098 91.1973 53.4495" stroke="url(#paint12_linear_2932_255050)" stroke-width="0.306937" stroke-linecap="round"/>
<path d="M105.828 54.075C105.451 53.3841 104.195 53.6353 104.069 55.0799C103.943 56.9014 106.77 57.341 107.775 55.4568C108.591 53.8238 107.838 52.3792 105.891 51.8767C104.32 51.4998 103.19 52.6304 102.687 53.9494C102.373 54.6403 102.31 55.8336 103.001 56.713C104.258 58.5972 107.524 58.5972 108.905 56.7758C109.471 56.0221 109.722 55.1427 109.722 54.7659" stroke="url(#paint13_linear_2932_255050)" stroke-width="0.306937" stroke-linecap="round"/>
<path d="M113.553 54.9573C114.055 55.6482 115.123 55.2714 115.249 53.8268C115.312 52.0053 112.36 51.6913 111.543 53.7012C110.852 55.2714 111.606 56.8416 113.553 57.2184C115.123 57.5325 116.254 56.2763 116.631 55.0829C116.945 54.392 116.819 53.2615 116.191 52.3822C114.872 50.5607 111.606 50.7492 110.287 52.6334C109.722 53.3871 109.596 54.2036 109.596 54.7689" stroke="url(#paint14_linear_2932_255050)" stroke-width="0.306937" stroke-linecap="round"/>
<path d="M62.75 72.2261C64.383 72.2261 65.7648 73.6707 65.7648 75.4293C65.7648 77.1251 64.383 78.6325 62.75 78.6325C61.1169 78.6325 59.7351 77.1879 59.7351 75.4293C59.7351 73.7335 61.0541 72.2261 62.75 72.2261Z" fill="#633A90"/>
<path d="M115.148 102.877C117.788 92.3451 113.244 82.1326 105.001 80.0666C96.7569 78.0006 87.9343 84.8634 85.2948 95.395C82.6553 105.927 87.1985 116.139 95.4423 118.205C103.686 120.271 112.509 113.408 115.148 102.877Z" fill="white"/>
<path d="M108.846 102.627C108.03 106.082 106.145 108.845 104.073 110.604C101.874 112.3 99.4876 112.99 97.2893 112.425C95.091 111.923 93.3323 110.164 92.2017 107.652C91.1339 105.077 90.8199 101.811 91.6993 98.3561C92.5158 94.9016 94.4001 92.1381 96.4728 90.3794C98.6711 88.6836 101.058 87.9927 103.256 88.558C105.455 89.0605 107.213 90.8191 108.344 93.3314C109.474 95.9066 109.788 99.2354 108.846 102.627Z" fill="#010101"/>
<path d="M98.9211 114.437C98.2302 114.437 97.4764 114.374 96.7855 114.123C94.0847 113.495 91.8236 111.422 90.4418 108.282C89.1228 105.141 88.9344 101.436 89.8137 97.7928C90.693 94.2128 92.6401 90.9467 95.2781 88.8112C97.9789 86.6757 100.994 85.922 103.695 86.6757C106.395 87.3038 108.656 89.3765 110.038 92.5169C111.42 95.7202 111.609 99.4258 110.666 103.069C109.787 106.649 107.84 109.852 105.265 111.988C103.192 113.621 101.057 114.437 98.9211 114.437ZM101.622 90.193C100.303 90.193 98.9839 90.7583 97.6021 91.826C95.655 93.459 94.1475 95.9714 93.4566 98.735C92.7657 101.624 92.8914 104.513 93.8963 106.9C94.7757 108.91 96.1574 110.229 97.7277 110.606C99.3607 111.045 101.119 110.543 102.878 109.161C104.825 107.528 106.333 105.016 107.023 102.252V102.189C107.777 99.363 107.589 96.5367 106.584 94.0871C105.704 92.0773 104.323 90.7583 102.752 90.3814C102.438 90.193 101.999 90.193 101.622 90.193Z" fill="url(#paint15_linear_2932_255050)"/>
<path d="M105.832 98.1641C107.81 98.1641 109.412 96.5612 109.412 94.584C109.412 92.6068 107.81 91.0039 105.832 91.0039C103.855 91.0039 102.252 92.6068 102.252 94.584C102.252 96.5612 103.855 98.1641 105.832 98.1641Z" fill="white"/>
<path d="M111.924 75.5562L106.459 77.1892L94.5256 80.7692L93.5835 81.0205" stroke="#4B2A7A" stroke-width="1.84162" stroke-miterlimit="10" stroke-linecap="round" stroke-linejoin="round"/>
<path d="M25.752 66.9497L29.4577 68.7712L39.57 73.733L40.3237 74.1099" stroke="#4B2A7A" stroke-width="1.84162" stroke-miterlimit="10" stroke-linecap="round" stroke-linejoin="round"/>
<path d="M69.9669 118.455C69.9669 118.455 78.7602 117.01 80.8329 116.194L84.9783 122.852C84.9783 122.852 75.9338 129.007 67.5173 125.552C67.5173 125.552 69.5901 122.161 69.9669 118.455Z" fill="#FFEDCB" stroke="#4B2A7A" stroke-width="0.613874" stroke-miterlimit="10" stroke-linecap="round" stroke-linejoin="round"/>
<path d="M69.2114 121.846L73.3568 122.914L75.9321 120.213L79.2609 121.469L82.5899 119.02" fill="#FFEDCB"/>
<path d="M69.2114 121.846L73.3568 122.914L75.9321 120.213L79.2609 121.469L82.5899 119.02" stroke="#4B2A7A" stroke-width="0.613874" stroke-miterlimit="10" stroke-linecap="round" stroke-linejoin="round"/>
<defs>
<linearGradient id="paint0_linear_2932_255050" x1="97.3051" y1="122.74" x2="97.8264" y2="122.74" gradientUnits="userSpaceOnUse">
<stop stop-color="#ECDAAC"/>
<stop offset="0.3411" stop-color="#F6B519"/>
<stop offset="0.7578" stop-color="#F6EFE3"/>
<stop offset="1" stop-color="#F6C64E"/>
</linearGradient>
<linearGradient id="paint1_linear_2932_255050" x1="97.8356" y1="123.816" x2="99.23" y2="123.816" gradientUnits="userSpaceOnUse">
<stop stop-color="#ECDAAC"/>
<stop offset="0.3411" stop-color="#F6B519"/>
<stop offset="0.7578" stop-color="#F6EFE3"/>
<stop offset="1" stop-color="#F6C64E"/>
</linearGradient>
<linearGradient id="paint2_linear_2932_255050" x1="99.6172" y1="121.985" x2="101.313" y2="121.985" gradientUnits="userSpaceOnUse">
<stop stop-color="#ECDAAC"/>
<stop offset="0.3411" stop-color="#F6B519"/>
<stop offset="0.7578" stop-color="#F6EFE3"/>
<stop offset="1" stop-color="#F6C64E"/>
</linearGradient>
<linearGradient id="paint3_linear_2932_255050" x1="96.7093" y1="121.627" x2="100.139" y2="121.627" gradientUnits="userSpaceOnUse">
<stop stop-color="#ECDAAC"/>
<stop offset="0.3411" stop-color="#F6B519"/>
<stop offset="0.7578" stop-color="#F6EFE3"/>
<stop offset="1" stop-color="#F6C64E"/>
</linearGradient>
<linearGradient id="paint4_linear_2932_255050" x1="117.405" y1="101.025" x2="172.682" y2="101.025" gradientUnits="userSpaceOnUse">
<stop stop-color="#ECB5D2"/>
<stop offset="1" stop-color="#E96BA7"/>
</linearGradient>
<linearGradient id="paint5_linear_2932_255050" x1="6.48278" y1="84.1368" x2="37.7252" y2="84.1368" gradientUnits="userSpaceOnUse">
<stop stop-color="#ECB5D2"/>
<stop offset="1" stop-color="#E96BA7"/>
</linearGradient>
<linearGradient id="paint6_linear_2932_255050" x1="17.9043" y1="89.7644" x2="44.8379" y2="93.9317" gradientUnits="userSpaceOnUse">
<stop stop-color="#8B68AC"/>
<stop offset="0.3062" stop-color="#774D9F"/>
<stop offset="0.5198" stop-color="#774D9F"/>
<stop offset="0.9107" stop-color="#623D97"/>
</linearGradient>
<linearGradient id="paint7_linear_2932_255050" x1="78.4867" y1="29.1327" x2="131.572" y2="20.271" gradientUnits="userSpaceOnUse">
<stop stop-color="#ECDAAC"/>
<stop offset="0.3411" stop-color="#F6B519"/>
<stop offset="0.7578" stop-color="#F6EFE3"/>
<stop offset="1" stop-color="#F6C64E"/>
</linearGradient>
<linearGradient id="paint8_linear_2932_255050" x1="62.8823" y1="46.2279" x2="120.646" y2="58.0439" gradientUnits="userSpaceOnUse">
<stop stop-color="#8B68AC"/>
<stop offset="0.3062" stop-color="#774D9F"/>
<stop offset="0.5198" stop-color="#774D9F"/>
<stop offset="0.9107" stop-color="#623D97"/>
</linearGradient>
<linearGradient id="paint9_linear_2932_255050" x1="73.384" y1="39.7511" x2="68.2531" y2="51.7955" gradientUnits="userSpaceOnUse">
<stop stop-color="#ECDAAC"/>
<stop offset="0.3411" stop-color="#F6B519"/>
<stop offset="0.7578" stop-color="#F6EFE3"/>
<stop offset="1" stop-color="#F6C64E"/>
</linearGradient>
<linearGradient id="paint10_linear_2932_255050" x1="75.2114" y1="54.7235" x2="79.7072" y2="42.4299" gradientUnits="userSpaceOnUse">
<stop stop-color="#ECDAAC"/>
<stop offset="0.3411" stop-color="#F6B519"/>
<stop offset="0.7578" stop-color="#F6EFE3"/>
<stop offset="1" stop-color="#F6C64E"/>
</linearGradient>
<linearGradient id="paint11_linear_2932_255050" x1="88.2091" y1="46.6754" x2="86.6717" y2="59.6719" gradientUnits="userSpaceOnUse">
<stop stop-color="#ECDAAC"/>
<stop offset="0.3411" stop-color="#F6B519"/>
<stop offset="0.7578" stop-color="#F6EFE3"/>
<stop offset="1" stop-color="#F6C64E"/>
</linearGradient>
<linearGradient id="paint12_linear_2932_255050" x1="94.2272" y1="60.5315" x2="95.085" y2="47.4695" gradientUnits="userSpaceOnUse">
<stop stop-color="#ECDAAC"/>
<stop offset="0.3411" stop-color="#F6B519"/>
<stop offset="0.7578" stop-color="#F6EFE3"/>
<stop offset="1" stop-color="#F6C64E"/>
</linearGradient>
<linearGradient id="paint13_linear_2932_255050" x1="104.178" y1="49.3895" x2="108.094" y2="61.8797" gradientUnits="userSpaceOnUse">
<stop stop-color="#ECDAAC"/>
<stop offset="0.3411" stop-color="#F6B519"/>
<stop offset="0.7578" stop-color="#F6EFE3"/>
<stop offset="1" stop-color="#F6C64E"/>
</linearGradient>
<linearGradient id="paint14_linear_2932_255050" x1="115.212" y1="59.6209" x2="110.652" y2="47.3542" gradientUnits="userSpaceOnUse">
<stop stop-color="#ECDAAC"/>
<stop offset="0.3411" stop-color="#F6B519"/>
<stop offset="0.7578" stop-color="#F6EFE3"/>
<stop offset="1" stop-color="#F6C64E"/>
</linearGradient>
<linearGradient id="paint15_linear_2932_255050" x1="87.3069" y1="94.9656" x2="114.104" y2="106.265" gradientUnits="userSpaceOnUse">
<stop stop-color="#8B68AC"/>
<stop offset="0.3062" stop-color="#774D9F"/>
<stop offset="0.5198" stop-color="#774D9F"/>
<stop offset="0.9107" stop-color="#623D97"/>
</linearGradient>
</defs>
</svg>
