<svg width="89" height="72" viewBox="0 0 89 72" fill="none" xmlns="http://www.w3.org/2000/svg">
<path d="M48.0405 60.0637C47.9484 60.1251 47.887 60.1558 47.7949 60.2172C47.7949 60.2172 47.7949 60.2172 47.7949 60.1865V60.1558C47.887 60.1558 47.9484 60.1251 48.0405 60.0637Z" fill="url(#paint0_linear_3799_5618)"/>
<path d="M48.7475 60.6162C48.6554 60.6776 48.5634 60.739 48.4713 60.8004C48.3792 60.7697 48.2257 60.7083 48.0723 60.5548C48.0723 60.5548 48.103 60.5548 48.1337 60.5548C48.2257 60.5548 48.3485 60.5855 48.4406 60.5855C48.502 60.5855 48.5327 60.5855 48.5941 60.5855C48.6248 60.6162 48.6861 60.6162 48.7475 60.6162Z" fill="url(#paint1_linear_3799_5618)"/>
<path d="M49.7604 60.1864C49.699 60.1864 49.6683 60.2171 49.6069 60.2478C49.6069 60.2171 49.5762 60.2171 49.5762 60.2171C49.5148 60.125 49.4841 60.0329 49.4227 59.9715C49.392 59.9408 49.3613 59.8795 49.3307 59.8488C49.3 59.7874 49.2386 59.726 49.1772 59.6646L49.1465 59.6339C49.0851 59.5418 48.993 59.4497 48.9316 59.3884C48.9316 59.3884 48.9316 59.3577 48.9623 59.3577C48.993 59.3884 49.0237 59.4191 49.0851 59.4497C49.3307 59.6646 49.5455 59.9102 49.7604 60.1864Z" fill="url(#paint2_linear_3799_5618)"/>
<path d="M49.0537 59.4191C48.7774 59.0507 48.4398 58.7131 48.0408 58.4675C47.918 58.4369 47.8259 58.4369 47.7031 58.4369C47.7952 58.4982 47.8873 58.5596 48.0101 58.621C48.0715 58.6517 48.1329 58.6824 48.1635 58.7438C48.1942 58.7745 48.2556 58.8052 48.317 58.8359C48.3784 58.8973 48.4398 58.928 48.5012 58.9893C48.5626 59.0507 48.6546 59.1121 48.716 59.1735C48.8081 59.2349 48.8695 59.327 48.9616 59.4191C49.023 59.4804 49.115 59.5725 49.1764 59.6646H49.2071C49.1457 59.5418 49.115 59.4804 49.0537 59.4191ZM47.7952 60.1864C47.7031 60.2785 47.6111 60.3399 47.4883 60.4319C47.4883 60.4319 47.519 60.4319 47.5497 60.4319C47.6418 60.3706 47.7338 60.3092 47.8259 60.2478C47.8873 60.1864 47.9794 60.1557 48.0715 60.0943C47.9487 60.125 47.8873 60.1557 47.7952 60.1864ZM48.5933 60.6161C48.5319 60.6161 48.5012 60.6161 48.4398 60.6161C48.3477 60.6161 48.2249 60.5854 48.1329 60.5854C48.1329 60.5854 48.1022 60.5854 48.0715 60.5854C48.2249 60.7082 48.3784 60.8003 48.4705 60.831C48.5626 60.7696 48.6546 60.7082 48.7467 60.6468C48.6853 60.6161 48.6239 60.6161 48.5933 60.6161Z" fill="url(#paint3_linear_3799_5618)"/>
<path d="M83.9522 41.0643C86.1929 45.4228 82.3254 46.3437 80.2076 49.2596C79.0105 50.917 78.8571 53.0656 78.2739 55.03C77.0154 59.3578 73.3629 62.8875 69.0351 64.0232C67.04 64.545 64.8914 64.5757 62.8657 64.1153C61.73 63.4707 60.7171 62.6113 59.8577 61.5063C56.1437 56.7795 57.1873 49.0447 62.0369 45.4842C60.0111 44.41 59.8577 41.7396 60.3488 39.7752C60.9933 37.2583 62.7429 36.3989 65.1063 35.5702C70.2321 33.7899 76.2174 34.4652 80.6987 37.5653C82.0185 38.5168 83.2156 39.6524 83.9522 41.0643Z" fill="url(#paint4_linear_3799_5618)" stroke="#4B2A7A" stroke-width="0.306937" stroke-miterlimit="10"/>
<path d="M10.5025 26.0551C13.0501 24.8581 16.0888 24.8274 18.667 25.9016C13.1422 30.6899 9.76587 37.0434 9.76587 44.0416C9.76587 48.9219 11.4233 53.526 14.3085 57.4547C13.357 57.3934 12.3748 57.2399 11.3926 56.9329C9.18268 56.2577 7.15691 55.0913 5.46875 53.4953C5.2232 53.2804 5.00834 53.0349 4.79349 52.82C4.02615 50.6714 3.56574 48.4001 3.44297 46.1288C3.19742 41.5247 4.7628 37.2276 8.04702 33.9434C8.66089 33.3295 8.6302 32.3473 8.41535 31.5186C8.20049 30.6899 7.86286 29.8611 7.92425 29.0324C8.04702 27.6512 9.27477 26.6383 10.5025 26.0551Z" fill="url(#paint5_linear_3799_5618)"/>
<path d="M22.5344 23.0471C21.1532 23.9065 19.8641 24.858 18.667 25.9016C16.0888 24.8274 13.0194 24.8274 10.5025 26.0551C9.27476 26.6383 8.04701 27.6512 7.92424 29.0324C7.83216 29.8918 8.20048 30.6898 8.41534 31.5186C8.6302 32.3473 8.63019 33.3295 8.04701 33.9434C4.76279 37.2276 3.19741 41.5554 3.44296 46.1288C3.56574 48.4001 4.02614 50.6714 4.79348 52.82C2.00036 49.812 0.496374 45.6377 0.772617 41.5554C0.926085 39.192 1.63204 36.9207 2.55285 34.7414C3.32019 32.9305 3.90337 31.1196 3.78059 29.0938C3.71921 28.173 3.22811 27.0066 3.38158 26.1165C3.53505 25.165 4.48655 24.1828 5.13111 23.5382C6.69649 22.0035 8.75297 21.052 10.8708 20.6223C14.8917 19.7629 19.1888 20.7144 22.5344 23.0471Z" fill="#DAD0E7" stroke="#4B2A7A" stroke-width="0.306937" stroke-miterlimit="10"/>
<path d="M49.7596 60.1864C49.5447 59.9102 49.3299 59.6339 49.0536 59.4191C48.7774 59.0507 48.4398 58.7131 48.0408 58.4675C47.918 58.4369 47.8259 58.4369 47.7031 58.4369C47.7952 58.4982 47.8873 58.5596 48.0101 58.621C48.0714 58.6517 48.1328 58.6824 48.1635 58.7438C48.1942 58.7745 48.2556 58.8052 48.317 58.8359C48.3784 58.8973 48.4398 58.928 48.5012 58.9893C48.5625 59.0507 48.6546 59.1121 48.716 59.1735C48.8081 59.2349 48.8695 59.327 48.9616 59.4191C49.023 59.4804 49.115 59.5725 49.1764 59.6646C49.1764 59.6953 49.2071 59.6953 49.2071 59.6953C49.2685 59.7567 49.2992 59.8181 49.3606 59.8795C49.3913 59.9102 49.422 59.9715 49.4527 60.0022C49.514 60.0943 49.5754 60.1864 49.6061 60.2478C49.6061 60.2785 49.6368 60.2785 49.6368 60.2785C49.6675 60.3092 49.6982 60.3706 49.6982 60.4013C49.6675 60.3706 49.6675 60.3092 49.6368 60.2785C49.6675 60.2171 49.6982 60.2171 49.7596 60.1864Z" fill="#DAD0E7"/>
<path d="M88.2494 41.7396C85.6097 34.8335 79.1026 29.9839 72.0124 29.1552C65.9351 21.9421 55.5299 17.2153 43.7435 17.2153C35.7325 17.2153 28.366 19.4253 22.5342 23.0778C21.153 23.9372 19.8638 24.9194 18.6668 25.9323C13.1419 30.7205 9.76562 37.0741 9.76562 44.0723C9.76562 46.6812 10.226 49.1674 11.1161 51.5615C11.8835 53.6487 12.9578 55.6438 14.3083 57.4854C15.1677 58.6518 16.1192 59.7568 17.1628 60.8003C18.0529 61.6598 18.9737 62.4885 19.9866 63.2865C20.048 63.44 20.1401 63.5935 20.2322 63.7469C19.4648 63.8697 18.6668 64.6984 18.3292 65.4044C17.9915 66.0797 17.9915 66.9391 18.3599 67.6143C19.3421 67.5836 20.2015 67.9213 21.0609 68.3203C21.5827 68.5658 22.0738 68.8114 22.5956 69.0262C24.6214 69.8243 27.0769 69.5173 28.8571 68.2282C29.9314 68.6272 31.0056 68.9956 32.1106 69.3332C34.1057 69.9164 36.1929 70.3461 38.3721 70.5916H38.4028C38.4028 70.5916 38.4335 70.5916 38.4642 70.5916C38.4949 70.5916 38.5563 70.5916 38.587 70.5916C38.9553 70.653 39.3543 70.653 39.7227 70.7144C40.3979 70.7144 41.1039 70.7144 41.7791 70.7144C42.1168 70.7758 42.4237 70.8372 42.7613 70.8679V70.8986C43.099 70.8986 43.4059 70.8986 43.7435 70.8986C44.5416 70.8986 45.3396 70.8679 46.1376 70.8372C48.8387 70.4382 51.509 70.0084 54.2101 69.6094C54.517 69.5173 54.8546 69.456 55.1616 69.3639C56.6349 68.9649 58.0468 68.4431 59.3973 67.8906C61.3617 67.0925 63.2033 66.141 64.8915 65.0668C70.9074 67.0005 78.5195 63.839 80.6066 57.5775C81.4967 54.9378 82.0492 51.9913 84.0443 50.0269C85.3642 48.7377 87.2058 47.9397 88.0959 46.3129C88.9246 44.9317 88.8325 43.2129 88.2494 41.7396ZM80.2076 49.2595C79.0106 50.917 78.8571 53.0655 78.2739 55.0299C77.0155 59.3577 73.3629 62.8875 69.0351 64.0232C67.04 64.545 64.8915 64.5757 62.8657 64.1153C61.73 63.4707 60.7171 62.6113 59.8577 61.5063C56.1438 56.7795 57.1874 49.0447 62.037 45.4842C60.0112 44.4099 59.8577 41.7396 60.3488 39.7752C60.9934 37.2583 62.7429 36.3989 65.1063 35.5701C70.2322 33.7899 76.2174 34.4652 80.6987 37.5652C82.0185 38.486 83.2156 39.6217 83.9522 41.0336C86.1929 45.3921 82.3562 46.3436 80.2076 49.2595Z" fill="#DAD0E7"/>
<path d="M42.2715 51.9307C42.4864 47.3881 46.9983 44.1038 51.4182 44.7791C53.7509 45.0553 56.2678 46.191 57.3728 48.401C58.4778 50.4574 58.5085 53.2506 56.9431 55.0308C56.8203 55.1536 56.6055 55.1229 56.5441 54.9387C55.8995 53.1585 55.1935 51.8386 54.0272 50.5802C53.0143 49.5673 52.1856 48.3703 50.7736 47.9099C47.4894 46.8356 43.929 48.7079 42.6705 52.0228C42.5784 52.207 42.2408 52.1456 42.2715 51.9307Z" fill="#4B2A7A"/>
<path d="M8.04785 45.0554C7.3112 42.9069 8.38548 40.4514 10.135 39.0702C12.8361 36.8602 17.1025 37.7197 19.6501 39.7147C21.2768 41.0653 22.2897 43.0604 22.4125 45.1168C22.4739 46.099 22.3204 47.0812 21.9521 47.9713C21.86 48.1862 21.5531 48.1248 21.5531 47.8793C21.7065 44.5643 19.3124 41.5871 16.0896 41.3108C15.3836 41.2494 14.7084 41.4029 14.0945 41.6485C12.9588 42.1395 11.5469 42.6306 10.4726 43.398C9.82808 43.8277 9.18352 44.3802 8.44687 45.1168C8.32409 45.2703 8.10923 45.2089 8.04785 45.0554Z" fill="#4B2A7A"/>
<path d="M25.9727 48.8298C26.1875 46.8348 27.538 45.0238 29.3797 44.1951C31.3134 43.3357 33.6768 43.6733 35.3035 44.9931" stroke="#4B2A7A" stroke-width="0.613874" stroke-miterlimit="10" stroke-linecap="round" stroke-linejoin="round"/>
<path d="M23.0566 63.041C23.3636 62.8261 23.6091 62.4885 23.7319 62.1202C23.9775 61.5063 23.9468 60.831 23.9161 60.1865C23.7933 58.0379 23.5477 55.8587 23.824 53.7101C24.0695 51.8992 24.7448 50.0882 25.9725 48.7991C26.2181 48.5536 26.4636 48.308 26.7399 48.1239C28.4587 46.8347 31.1291 46.6506 32.6945 48.1239" stroke="#4B2A7A" stroke-width="0.613874" stroke-miterlimit="10" stroke-linecap="round" stroke-linejoin="round"/>
<path d="M64.9214 65.0668C70.9374 67.0005 78.5494 63.839 80.6366 57.5775C81.5267 54.9378 82.0792 51.9913 84.0742 50.0269C85.3941 48.7377 87.2357 47.9397 88.1258 46.3129C88.8932 44.9317 88.8011 43.1822 88.2486 41.7089C85.6089 34.8028 79.1019 29.9532 72.0116 29.1245C69.1571 28.7868 66.2105 29.0938 63.3867 30.1987" stroke="#4B2A7A" stroke-width="0.613874" stroke-miterlimit="10" stroke-linecap="round" stroke-linejoin="round"/>
<path d="M62.8652 64.1459C63.5098 64.5142 64.2158 64.8212 64.9217 65.0667" stroke="#4B2A7A" stroke-width="0.613874" stroke-miterlimit="10" stroke-linecap="round" stroke-linejoin="round"/>
<path d="M62.8657 64.1459C61.73 63.5013 60.7171 62.6419 59.8577 61.5369C56.1437 56.8101 57.1873 49.0753 62.0369 45.5148C60.0111 44.4405 59.8577 41.7702 60.3488 39.8058C60.9933 37.2889 62.7429 36.4295 65.1063 35.6007C70.2321 33.8205 76.2174 34.4958 80.6987 37.5958C82.0185 38.5166 83.2156 39.6523 83.9522 41.0642C86.1929 45.4227 82.3254 46.3435 80.2076 49.2594C79.0105 50.9169 78.8571 53.0654 78.2739 55.0298C77.0154 59.3576 73.3629 62.8874 69.0351 64.0231C67.0093 64.5756 64.8914 64.5756 62.8657 64.1459Z" stroke="#4B2A7A" stroke-width="0.613874" stroke-miterlimit="10" stroke-linecap="round" stroke-linejoin="round"/>
<path d="M20.0173 63.2559C19.8946 63.0103 19.8025 62.7648 19.7411 62.4886C19.649 62.0588 19.7104 61.5677 19.9866 61.2301C20.2629 60.8925 20.7847 60.7083 21.1837 60.9539C21.5213 61.1687 21.6441 61.5984 21.8283 61.9668C22.1045 62.4579 22.5649 62.8569 23.0867 63.0717C23.3629 63.1638 23.6392 63.2252 23.9461 63.2252" stroke="#4B2A7A" stroke-width="0.613874" stroke-miterlimit="10" stroke-linecap="round" stroke-linejoin="round"/>
<path d="M18.6983 25.9016C16.12 24.8273 13.0506 24.8273 10.5338 26.0551C9.30602 26.6383 8.07827 27.6512 7.9555 29.0324C7.86342 29.8918 8.23174 30.6898 8.4466 31.5186C8.66145 32.3473 8.66145 33.3295 8.07827 33.9434C4.79405 37.2276 3.22867 41.5554 3.47422 46.1288C3.59699 48.4001 4.0574 50.6714 4.82474 52.82" stroke="#4B2A7A" stroke-width="0.613874" stroke-miterlimit="10" stroke-linecap="round" stroke-linejoin="round"/>
<path d="M14.3085 57.4547C13.357 57.3933 12.3748 57.2399 11.3926 56.9329C9.18268 56.2577 7.1569 55.0913 5.46875 53.4952C5.2232 53.2804 5.00834 53.0348 4.79348 52.82C2.00036 49.812 0.496374 45.6377 0.772617 41.5554C0.926085 39.192 1.63204 36.9207 2.55285 34.7414C3.32019 32.9305 3.90337 31.1195 3.78059 29.0938C3.71921 28.173 3.22811 27.0066 3.38158 26.1165C3.53505 25.165 4.48655 24.1828 5.13111 23.5382C6.69649 22.0035 8.75297 21.052 10.8708 20.6223C14.8917 19.7936 19.1888 20.7451 22.5344 23.0778" stroke="#4B2A7A" stroke-width="0.613874" stroke-miterlimit="10" stroke-linecap="round" stroke-linejoin="round"/>
<path d="M72.0124 29.1244C65.9351 21.9114 55.5299 17.1539 43.7435 17.1539C35.7325 17.1539 28.366 19.3638 22.5342 23.0164C21.153 23.8758 19.8638 24.8273 18.6668 25.8709C15.4746 28.6333 13.0192 31.8868 11.4845 35.5087C11.2696 35.9998 11.0854 36.4602 10.932 36.9513C10.9013 37.0741 10.8399 37.1968 10.8092 37.3196C10.533 38.1483 10.3181 39.0078 10.1646 39.8672C9.8884 41.2177 9.76562 42.5989 9.76562 43.9801C9.76562 45.6683 9.94979 47.3258 10.3488 48.9525C10.5944 49.9347 10.9013 50.8862 11.2389 51.8377C11.2696 51.8991 11.3003 51.9912 11.331 52.0526C11.4538 52.3902 11.6072 52.6971 11.7607 53.0348C11.8835 53.2803 12.0063 53.5566 12.129 53.8021C12.2825 54.0784 12.436 54.3853 12.5894 54.6615C13.1112 55.5824 13.6637 56.5032 14.3083 57.3626C15.8737 59.5111 17.7767 61.4448 19.9866 63.1637" stroke="#4B2A7A" stroke-width="0.613874" stroke-miterlimit="10" stroke-linecap="round" stroke-linejoin="round"/>
<path d="M64.9225 65.0668C63.2036 66.1411 61.362 67.0926 59.4283 67.8906C58.0778 68.4431 56.6659 68.9342 55.1926 69.3639C54.3332 69.6094 53.4431 69.8243 52.5529 70.0085C50.8034 70.3768 48.9925 70.653 47.1202 70.7758C46.0152 70.8679 44.8795 70.8986 43.7439 70.8986C43.6518 70.8986 43.4676 70.8986 43.2221 70.8679C43.0686 70.8679 42.9151 70.8679 42.7617 70.8372C41.7488 70.8065 40.7359 70.7451 39.723 70.653C39.5081 70.6223 39.2933 70.6223 39.1091 70.5916C38.9249 70.5609 38.7408 70.5609 38.5873 70.5609C38.5259 70.5609 38.4952 70.5609 38.4645 70.5609C38.4338 70.5609 38.4338 70.5609 38.4031 70.5609C38.3725 70.5609 38.3725 70.5609 38.3725 70.5609C36.2239 70.2847 34.1367 69.855 32.1109 69.2718C31.006 68.9342 29.901 68.5965 28.8574 68.1668" stroke="#4B2A7A" stroke-width="0.613874" stroke-miterlimit="10" stroke-linecap="round" stroke-linejoin="round"/>
<path d="M40.8894 29.2472C40.7052 29.4007 40.4903 29.5848 40.2448 29.7076C40.0299 29.8304 39.8151 29.9225 39.6002 30.0145C38.219 30.5363 36.5615 30.5363 35.2417 31.273C33.5229 32.2552 32.0189 34.0968 31.3129 35.1711C29.8703 31.8562 32.2337 29.4007 33.615 28.5413C32.203 28.3878 29.7169 30.3829 28.6426 31.3958C29.6862 27.866 32.909 26.6689 34.413 26.5155C33.7684 25.8095 32.1724 25.8095 31.4357 25.9016C32.7248 25.1343 33.8912 24.6125 34.9041 24.3362C35.3338 24.2134 35.7328 24.1214 36.1318 24.0907C36.9606 25.3798 37.9428 26.5769 39.1091 27.6818C39.6309 28.2343 40.2448 28.7561 40.8894 29.2472Z" fill="#010101"/>
<path d="M35.5784 12.3662C33.8595 11.8751 32.3555 10.7701 31.5882 9.23542C30.2991 6.65715 31.5882 3.15807 34.3506 2.20656C37.5735 1.0709 40.9191 2.48281 43.4053 4.66206C44.1112 2.88183 45.6766 1.43922 47.5182 0.978817C49.8509 0.395637 52.4906 1.37784 53.9025 3.34223C54.5471 4.23235 54.8847 5.30663 54.9461 6.4116C56.358 5.95119 57.862 5.73634 59.3353 5.98189C61.269 6.25813 63.1413 7.3631 64.0007 9.05125C64.8601 10.7087 64.6453 12.8266 63.5403 14.2999C62.6809 15.4355 61.3611 16.2336 59.9185 16.5405C58.3531 18.6584 57.862 21.605 58.66 24.1218C58.2917 23.8456 57.8313 23.6921 57.2788 23.6921C54.6698 23.6001 52.1223 23.508 49.5133 23.1397C48.5925 23.0169 46.6281 22.6179 45.7073 22.4644C44.7865 22.2495 42.8528 21.8198 41.932 21.605C41.5329 21.5129 41.1339 21.3901 40.7349 21.2673C38.617 20.6535 36.6526 19.8861 34.5962 19.0881C34.4734 19.0267 34.3506 18.996 34.2278 18.9653L34.2585 18.9346C35.5477 16.9702 36.0081 14.5761 35.5784 12.3662Z" fill="url(#paint6_linear_3799_5618)"/>
<path d="M58.6903 24.0912C59.6418 24.7665 59.9487 26.0863 59.3349 27.3754C59.2735 27.4982 59.2121 27.5903 59.1507 27.7131C58.3834 28.9408 56.9408 29.5547 55.5288 29.9537C52.3367 30.8745 47.4564 30.6597 44.1722 30.0458C40.9187 29.3398 36.3453 27.621 33.767 25.5031C32.6314 24.5823 31.5571 23.4466 31.3422 22.004C31.3115 21.7892 31.2808 21.5743 31.3115 21.3595C31.3422 19.7327 32.57 18.597 34.0433 18.8426C34.1047 18.8426 34.1661 18.8733 34.2274 18.8733C34.3502 18.904 34.473 18.9347 34.5958 18.9961C36.6522 19.7941 38.6166 20.5614 40.7345 21.1753C41.1335 21.2981 41.5325 21.4209 41.9315 21.5129C42.8217 21.7585 44.7861 22.1882 45.7069 22.3724C46.6277 22.5258 48.5921 22.9249 49.5129 23.0476C52.1219 23.4466 54.6694 23.508 57.2784 23.6001C57.8616 23.6615 58.322 23.815 58.6903 24.0912Z" fill="url(#paint7_linear_3799_5618)"/>
<path d="M35.5776 12.3667C36.0074 14.5766 35.5469 16.9707 34.2885 18.843L34.2578 18.8737" stroke="#D19B2A" stroke-width="0.613874" stroke-miterlimit="10" stroke-linecap="round" stroke-linejoin="round"/>
<path d="M46.4439 8.31506C45.7073 7.05662 44.6637 5.76749 43.4053 4.66251C40.8884 2.48326 37.5428 1.10205 34.3506 2.20702C31.5882 3.15852 30.2991 6.6576 31.5882 9.23587C32.3555 10.7706 33.8595 11.8755 35.5784 12.3666C35.6398 12.3973 35.7011 12.3973 35.7625 12.428C36.8675 12.7043 38.0339 12.735 39.1388 12.4587" stroke="#D19B2A" stroke-width="0.613874" stroke-miterlimit="10" stroke-linecap="round" stroke-linejoin="round"/>
<path d="M54.9758 6.38136C56.3877 5.92096 57.8917 5.7061 59.365 5.95165C61.2987 6.2279 63.171 7.33287 64.0304 9.02102C64.8899 10.6785 64.675 12.7963 63.57 14.2696C62.7106 15.4053 61.3908 16.2033 59.9482 16.5103C59.5185 16.6024 59.0581 16.6637 58.6284 16.6637C56.6947 16.6944 54.761 15.9271 53.3184 14.6687" stroke="#D19B2A" stroke-width="0.613874" stroke-miterlimit="10" stroke-linecap="round" stroke-linejoin="round"/>
<path d="M58.6902 24.0917C57.8614 21.5748 58.3525 18.6282 59.9486 16.5103" stroke="#D19B2A" stroke-width="0.613874" stroke-miterlimit="10" stroke-linecap="round" stroke-linejoin="round"/>
<path d="M43.4355 4.66252C44.1415 2.88228 45.7069 1.43968 47.5485 0.979275C49.8812 0.396095 52.5209 1.37829 53.9328 3.34269C54.5774 4.2328 54.915 5.30708 54.9764 6.41206C55.0684 7.73188 54.7308 9.05171 54.0249 10.1567" stroke="#D19B2A" stroke-width="0.613874" stroke-miterlimit="10" stroke-linecap="round" stroke-linejoin="round"/>
<path d="M59.3349 27.3754C59.2735 27.4982 59.2121 27.5903 59.1507 27.7131C58.3834 28.9408 56.9408 29.5547 55.5288 29.9537C52.3367 30.8745 47.4564 30.6597 44.1722 30.0458C40.9187 29.3398 36.3453 27.621 33.767 25.5031C32.6314 24.5823 31.5571 23.4466 31.3422 22.004C31.3115 21.7892 31.2808 21.5743 31.3115 21.3595C31.3422 19.7327 32.57 18.597 34.0433 18.8426C34.1047 18.8426 34.1661 18.8733 34.2274 18.8733C34.3502 18.904 34.473 18.9347 34.5958 18.9961C36.6522 19.7941 38.6166 20.5614 40.7345 21.1753C41.1335 21.2981 41.5325 21.4209 41.9315 21.5129C42.8217 21.7585 44.7861 22.1882 45.7069 22.3724C46.6277 22.5258 48.5921 22.9249 49.5129 23.0476C52.1219 23.4466 54.6694 23.508 57.2784 23.6001C57.8309 23.6308 58.2913 23.7843 58.6596 24.0298C59.6725 24.7358 59.9794 26.0863 59.3349 27.3754Z" stroke="#4B2A7A" stroke-width="0.613874" stroke-miterlimit="10" stroke-linecap="round" stroke-linejoin="round"/>
<path d="M35.1809 21.7892C35.2423 21.4209 34.7205 21.114 34.1987 21.6358C33.5848 22.2803 34.475 23.3546 35.4572 22.9556C36.2552 22.6179 36.47 21.8506 35.9176 21.0526C35.4878 20.4387 34.6591 20.5001 34.1066 20.8377C33.7383 20.9912 33.3393 21.513 33.3086 22.1575C33.3086 23.1397 34.2908 23.9992 35.273 23.8457C35.7948 23.7536 36.2552 23.4774 36.4086 23.2932" stroke="url(#paint8_linear_3799_5618)" stroke-width="0.306937" stroke-linecap="round"/>
<path d="M37.8209 24.613C37.7902 24.9813 38.3427 25.2576 38.8338 24.7358C39.4784 24.0605 38.4655 23.0169 37.4833 23.508C36.6853 23.8764 36.5318 24.6744 37.115 25.4417C37.6061 26.0249 38.3734 25.9635 38.9873 25.5952C39.3556 25.4111 39.7546 24.8893 39.6933 24.214C39.6319 23.2625 38.619 22.4645 37.6675 22.6486C37.1457 22.7714 36.7467 23.0783 36.5625 23.2625" stroke="url(#paint9_linear_3799_5618)" stroke-width="0.306937" stroke-linecap="round"/>
<path d="M43.1295 25.4112C43.0988 25.0122 42.5156 24.9508 42.1166 25.534C41.6562 26.3014 42.8839 27.0994 43.682 26.4241C44.3572 25.8717 44.2958 25.0429 43.5899 24.4597C42.976 23.9993 42.2394 24.2449 41.7483 24.736C41.472 24.9815 41.1958 25.5647 41.3799 26.2093C41.6869 27.1301 42.8532 27.6519 43.7434 27.2529C44.2345 27.038 44.5414 26.6697 44.6642 26.4241" stroke="url(#paint10_linear_3799_5618)" stroke-width="0.306937" stroke-linecap="round"/>
<path d="M46.4451 27.2835C46.5372 27.6518 47.1204 27.7132 47.4273 27.0993C47.857 26.2706 46.5679 25.5646 45.8006 26.2706C45.156 26.8538 45.2174 27.6518 46.0154 28.235C46.66 28.6647 47.3966 28.3578 47.8263 27.8974C48.1026 27.6518 48.3481 27.0072 48.1333 26.3627C47.7956 25.4112 46.5986 24.9815 45.7085 25.4112C45.2481 25.6567 44.9411 26.0864 44.8184 26.3013" stroke="url(#paint11_linear_3799_5618)" stroke-width="0.306937" stroke-linecap="round"/>
<path d="M51.9693 26.6081C51.7851 26.2705 51.1712 26.3933 51.1099 27.0992C51.0485 27.9894 52.4297 28.2042 52.9208 27.2834C53.3198 26.4854 52.9515 25.7794 52 25.5339C51.2326 25.3497 50.6801 25.9022 50.4346 26.5468C50.2811 26.8844 50.2504 27.4676 50.5881 27.8973C51.2019 28.8181 52.798 28.8181 53.4733 27.928C53.7495 27.5597 53.8723 27.1299 53.8723 26.9458" stroke="url(#paint12_linear_3799_5618)" stroke-width="0.306937" stroke-linecap="round"/>
<path d="M55.7442 27.0378C55.9898 27.3754 56.5116 27.1912 56.573 26.4853C56.6037 25.5952 55.1611 25.4417 54.762 26.4239C54.4244 27.1912 54.7927 27.9586 55.7442 28.1427C56.5116 28.2962 57.0641 27.6823 57.2482 27.0991C57.4017 26.7615 57.3403 26.209 57.0334 25.7793C56.3888 24.8892 54.7927 24.9813 54.1482 25.9021C53.8719 26.2704 53.8105 26.6694 53.8105 26.9457" stroke="url(#paint13_linear_3799_5618)" stroke-width="0.306937" stroke-linecap="round"/>
<path d="M30.9147 35.447C31.7127 35.447 32.388 36.1529 32.388 37.0123C32.388 37.8411 31.7127 38.5777 30.9147 38.5777C30.1167 38.5777 29.4414 37.8718 29.4414 37.0123C29.4414 36.1836 30.086 35.447 30.9147 35.447Z" fill="#633A90"/>
<path d="M38.2494 53.4035C37.9118 54.355 38.2187 55.46 38.894 56.2273C39.2623 56.657 39.7534 56.964 40.3059 57.0867" stroke="#4B2A7A" stroke-width="0.613874" stroke-miterlimit="10" stroke-linecap="round" stroke-linejoin="round"/>
<path d="M32.6934 62.6116C35.0875 63.6245 38.2489 62.4274 39.2925 60.0026" stroke="#4B2A7A" stroke-width="0.613874" stroke-miterlimit="10" stroke-linecap="round" stroke-linejoin="round"/>
<path d="M38.8942 56.2273C37.4516 56.4422 36.1011 57.363 35.1496 58.4679C34.106 59.6957 33.4001 61.169 32.7248 62.6116C32.602 62.8878 32.4486 63.1948 32.3258 63.471C31.497 65.1899 30.4842 66.9394 28.9188 68.0751C27.1079 69.3642 24.6524 69.7018 22.5652 68.8731C22.0434 68.6582 21.5216 68.4127 20.9998 68.1671C20.1097 67.7681 19.2196 67.3998 18.2374 67.4305C17.8691 66.7552 17.8384 65.8651 18.2067 65.1899C18.5443 64.4839 19.373 63.6552 20.1404 63.5324C20.0483 63.3789 19.9869 63.2255 19.8948 63.072" stroke="#4B2A7A" stroke-width="0.613874" stroke-miterlimit="10" stroke-linecap="round" stroke-linejoin="round"/>
<defs>
<linearGradient id="paint0_linear_3799_5618" x1="47.8007" y1="60.1558" x2="48.0555" y2="60.1558" gradientUnits="userSpaceOnUse">
<stop stop-color="#ECDAAC"/>
<stop offset="0.3411" stop-color="#F6B519"/>
<stop offset="0.7578" stop-color="#F6EFE3"/>
<stop offset="1" stop-color="#F6C64E"/>
</linearGradient>
<linearGradient id="paint1_linear_3799_5618" x1="48.0597" y1="60.6822" x2="48.7411" y2="60.6822" gradientUnits="userSpaceOnUse">
<stop stop-color="#ECDAAC"/>
<stop offset="0.3411" stop-color="#F6B519"/>
<stop offset="0.7578" stop-color="#F6EFE3"/>
<stop offset="1" stop-color="#F6C64E"/>
</linearGradient>
<linearGradient id="paint2_linear_3799_5618" x1="48.9313" y1="59.7874" x2="49.76" y2="59.7874" gradientUnits="userSpaceOnUse">
<stop stop-color="#ECDAAC"/>
<stop offset="0.3411" stop-color="#F6B519"/>
<stop offset="0.7578" stop-color="#F6EFE3"/>
<stop offset="1" stop-color="#F6C64E"/>
</linearGradient>
<linearGradient id="paint3_linear_3799_5618" x1="47.5094" y1="59.6124" x2="49.1853" y2="59.6124" gradientUnits="userSpaceOnUse">
<stop stop-color="#ECDAAC"/>
<stop offset="0.3411" stop-color="#F6B519"/>
<stop offset="0.7578" stop-color="#F6EFE3"/>
<stop offset="1" stop-color="#F6C64E"/>
</linearGradient>
<linearGradient id="paint4_linear_3799_5618" x1="57.6227" y1="49.5447" x2="84.6354" y2="49.5447" gradientUnits="userSpaceOnUse">
<stop stop-color="#ECB5D2"/>
<stop offset="1" stop-color="#E96BA7"/>
</linearGradient>
<linearGradient id="paint5_linear_3799_5618" x1="3.4174" y1="41.2892" x2="18.6849" y2="41.2892" gradientUnits="userSpaceOnUse">
<stop stop-color="#ECB5D2"/>
<stop offset="1" stop-color="#E96BA7"/>
</linearGradient>
<linearGradient id="paint6_linear_3799_5618" x1="38.6071" y1="14.4154" x2="64.5491" y2="10.0849" gradientUnits="userSpaceOnUse">
<stop stop-color="#ECDAAC"/>
<stop offset="0.3411" stop-color="#F6B519"/>
<stop offset="0.7578" stop-color="#F6EFE3"/>
<stop offset="1" stop-color="#F6C64E"/>
</linearGradient>
<linearGradient id="paint7_linear_3799_5618" x1="30.9803" y1="22.77" x2="59.2085" y2="28.5442" gradientUnits="userSpaceOnUse">
<stop stop-color="#8B68AC"/>
<stop offset="0.3062" stop-color="#774D9F"/>
<stop offset="0.5198" stop-color="#774D9F"/>
<stop offset="0.9107" stop-color="#623D97"/>
</linearGradient>
<linearGradient id="paint8_linear_3799_5618" x1="36.1226" y1="19.6037" x2="33.6151" y2="25.4895" gradientUnits="userSpaceOnUse">
<stop stop-color="#ECDAAC"/>
<stop offset="0.3411" stop-color="#F6B519"/>
<stop offset="0.7578" stop-color="#F6EFE3"/>
<stop offset="1" stop-color="#F6C64E"/>
</linearGradient>
<linearGradient id="paint9_linear_3799_5618" x1="37.0165" y1="26.919" x2="39.2135" y2="20.9113" gradientUnits="userSpaceOnUse">
<stop stop-color="#ECDAAC"/>
<stop offset="0.3411" stop-color="#F6B519"/>
<stop offset="0.7578" stop-color="#F6EFE3"/>
<stop offset="1" stop-color="#F6C64E"/>
</linearGradient>
<linearGradient id="paint10_linear_3799_5618" x1="43.3645" y1="22.9879" x2="42.6132" y2="29.3392" gradientUnits="userSpaceOnUse">
<stop stop-color="#ECDAAC"/>
<stop offset="0.3411" stop-color="#F6B519"/>
<stop offset="0.7578" stop-color="#F6EFE3"/>
<stop offset="1" stop-color="#F6C64E"/>
</linearGradient>
<linearGradient id="paint11_linear_3799_5618" x1="46.3056" y1="29.7586" x2="46.7248" y2="23.3755" gradientUnits="userSpaceOnUse">
<stop stop-color="#ECDAAC"/>
<stop offset="0.3411" stop-color="#F6B519"/>
<stop offset="0.7578" stop-color="#F6EFE3"/>
<stop offset="1" stop-color="#F6C64E"/>
</linearGradient>
<linearGradient id="paint12_linear_3799_5618" x1="51.1698" y1="24.3149" x2="53.0832" y2="30.4186" gradientUnits="userSpaceOnUse">
<stop stop-color="#ECDAAC"/>
<stop offset="0.3411" stop-color="#F6B519"/>
<stop offset="0.7578" stop-color="#F6EFE3"/>
<stop offset="1" stop-color="#F6C64E"/>
</linearGradient>
<linearGradient id="paint13_linear_3799_5618" x1="56.5616" y1="29.3133" x2="54.333" y2="23.3187" gradientUnits="userSpaceOnUse">
<stop stop-color="#ECDAAC"/>
<stop offset="0.3411" stop-color="#F6B519"/>
<stop offset="0.7578" stop-color="#F6EFE3"/>
<stop offset="1" stop-color="#F6C64E"/>
</linearGradient>
</defs>
</svg>
